<?xml version="1.0" encoding="UTF-8"?>
<!DOCTYPE svg PUBLIC "-//W3C//DTD SVG 1.1//EN" "http://www.w3.org/Graphics/SVG/1.1/DTD/svg11.dtd">
<svg xmlns="http://www.w3.org/2000/svg" version="1.1" width="2908px" height="2908px" style="shape-rendering:geometricPrecision; text-rendering:geometricPrecision; image-rendering:optimizeQuality; fill-rule:evenodd; clip-rule:evenodd" xmlns:xlink="http://www.w3.org/1999/xlink">
<g><path style="opacity:0.082" fill="#808080" d="M 1398.5,-0.5 C 1435.17,-0.5 1471.83,-0.5 1508.5,-0.5C 1853.16,16.0449 2155.16,136.545 2414.5,361C 2660.18,580.393 2816.02,852.56 2882,1177.5C 2895.75,1250.72 2904.25,1324.38 2907.5,1398.5C 2907.5,1435.17 2907.5,1471.83 2907.5,1508.5C 2890.96,1853.16 2770.46,2155.16 2546,2414.5C 2326.61,2660.18 2054.44,2816.02 1729.5,2882C 1656.28,2895.75 1582.62,2904.25 1508.5,2907.5C 1471.83,2907.5 1435.17,2907.5 1398.5,2907.5C 1053.84,2890.96 751.842,2770.46 492.5,2546C 242.46,2322.55 85.6269,2045.05 22,1713.5C 10.0552,1645.5 2.55523,1577.17 -0.5,1508.5C -0.5,1471.83 -0.5,1435.17 -0.5,1398.5C 16.0449,1053.84 136.545,751.842 361,492.5C 584.451,242.46 861.951,85.6269 1193.5,22C 1261.5,10.0552 1329.83,2.55523 1398.5,-0.5 Z"/></g>
<g><path style="opacity:1" fill="#f4f4f4" d="M 2240.5,2632.5 C 2239.88,2632.39 2239.38,2632.06 2239,2631.5C 2228.07,2571.71 2206.74,2516.04 2175,2464.5C 2139.87,2410.37 2092.37,2371.2 2032.5,2347C 2018.49,2342.08 2004.15,2338.58 1989.5,2336.5C 1880.33,2335.5 1771,2335.17 1661.5,2335.5C 1661.5,2271.5 1661.5,2207.5 1661.5,2143.5C 1848.58,2069.75 1975.58,1938.09 2042.5,1748.5C 2058.89,1720.05 2072.89,1690.38 2084.5,1659.5C 2099.98,1651.18 2111.15,1638.85 2118,1622.5C 2130.8,1591.69 2135.13,1559.69 2131,1526.5C 2129.48,1516.43 2127.65,1506.43 2125.5,1496.5C 2146.11,1288.84 2087.94,1107.18 1951,951.5C 1936.32,935.317 1920.82,919.984 1904.5,905.5C 1910.93,862.209 1900.1,823.875 1872,790.5C 1829.89,746.034 1778.06,721.867 1716.5,718C 1749.89,679.16 1765.39,633.993 1763,582.5C 1761.79,561.68 1757.13,541.68 1749,522.5C 1748.59,522.043 1748.09,521.709 1747.5,521.5C 1724.5,552.981 1694.5,575.148 1657.5,588C 1608.13,603.982 1557.46,611.815 1505.5,611.5C 1496.98,611.826 1488.65,611.493 1480.5,610.5C 1506.21,596.128 1520.71,574.128 1524,544.5C 1525.67,527.517 1522,511.85 1513,497.5C 1482.01,536.836 1445.18,569.336 1402.5,595C 1386.33,604.586 1370,613.92 1353.5,623C 1303.71,647.729 1254.04,672.729 1204.5,698C 1154.95,723.542 1110.45,756.042 1071,795.5C 1048.8,820.222 1029.8,847.222 1014,876.5C 864.269,999.805 778.936,1158.47 758,1352.5C 754.142,1400.41 754.975,1448.07 760.5,1495.5C 747.902,1539.67 750.402,1583 768,1625.5C 774.656,1640.99 785.489,1652.32 800.5,1659.5C 812.198,1690.27 826.198,1719.93 842.5,1748.5C 903.452,1923.23 1017.78,2049.73 1185.5,2128C 1197.26,2132.89 1208.92,2137.72 1220.5,2142.5C 1220.5,2206.83 1220.5,2271.17 1220.5,2335.5C 1108.67,2335.17 996.999,2335.5 885.5,2336.5C 855.222,2341.2 826.889,2351.37 800.5,2367C 743.066,2403.11 700.566,2452.28 673,2514.5C 659.478,2545.91 648.311,2577.91 639.5,2610.5C 400.66,2440.92 228.493,2219.25 123,1945.5C 23.8295,1674.77 6.16286,1398.77 70,1117.5C 147.573,801.664 311.406,541.164 561.5,336C 835.308,118.839 1147.97,13.8389 1499.5,21C 1851.31,35.3441 2157.31,159.344 2417.5,393C 2646.89,605.829 2792.72,866.662 2855,1175.5C 2906.77,1456.13 2878.77,1728.47 2771,1992.5C 2657.67,2258.65 2480.84,2471.98 2240.5,2632.5 Z"/></g>
<g><path style="opacity:1" fill="#333333" d="M 1480.5,610.5 C 1479.23,611.09 1477.9,611.59 1476.5,612C 1486.34,612.825 1496.01,612.658 1505.5,611.5C 1557.46,611.815 1608.13,603.982 1657.5,588C 1694.5,575.148 1724.5,552.981 1747.5,521.5C 1748.09,521.709 1748.59,522.043 1749,522.5C 1757.13,541.68 1761.79,561.68 1763,582.5C 1765.39,633.993 1749.89,679.16 1716.5,718C 1778.06,721.867 1829.89,746.034 1872,790.5C 1900.1,823.875 1910.93,862.209 1904.5,905.5C 1920.82,919.984 1936.32,935.317 1951,951.5C 2087.94,1107.18 2146.11,1288.84 2125.5,1496.5C 2119.97,1477.61 2109.97,1461.44 2095.5,1448C 2086.18,1440.95 2075.85,1438.78 2064.5,1441.5C 2050.17,1361.16 2021.51,1286.5 1978.5,1217.5C 1977.15,1214.8 1975.32,1212.47 1973,1210.5C 1895.6,1240.72 1816.1,1263.56 1734.5,1279C 1642.47,1295.89 1550.14,1297.89 1457.5,1285C 1339.64,1266.86 1234.64,1220.53 1142.5,1146C 1138.12,1145.32 1133.79,1144.49 1129.5,1143.5C 1090.31,1139.5 1054.65,1126.33 1022.5,1104C 1018.2,1100.7 1014.2,1097.04 1010.5,1093C 1009.83,1092.33 1009.17,1092.33 1008.5,1093C 909.146,1188.51 846.479,1304.35 820.5,1440.5C 802.348,1438.82 787.848,1445.49 777,1460.5C 769.347,1471.14 763.847,1482.81 760.5,1495.5C 754.975,1448.07 754.142,1400.41 758,1352.5C 778.936,1158.47 864.269,999.805 1014,876.5C 1029.8,847.222 1048.8,820.222 1071,795.5C 1110.45,756.042 1154.95,723.542 1204.5,698C 1254.04,672.729 1303.71,647.729 1353.5,623C 1370,613.92 1386.33,604.586 1402.5,595C 1445.18,569.336 1482.01,536.836 1513,497.5C 1522,511.85 1525.67,527.517 1524,544.5C 1520.71,574.128 1506.21,596.128 1480.5,610.5 Z"/></g>
<g><path style="opacity:1" fill="#b5b5b5" d="M 1480.5,610.5 C 1488.65,611.493 1496.98,611.826 1505.5,611.5C 1496.01,612.658 1486.34,612.825 1476.5,612C 1477.9,611.59 1479.23,611.09 1480.5,610.5 Z"/></g>
<g><path style="opacity:1" fill="#fcb696" d="M 1129.5,1143.5 C 1248.25,1242.83 1385.59,1295.33 1541.5,1301C 1621.81,1302.93 1701.15,1295.26 1779.5,1278C 1845.6,1262.64 1910.26,1242.64 1973.5,1218C 1975.13,1217.51 1976.8,1217.34 1978.5,1217.5C 2021.51,1286.5 2050.17,1361.16 2064.5,1441.5C 2075.85,1438.78 2086.18,1440.95 2095.5,1448C 2109.97,1461.44 2119.97,1477.61 2125.5,1496.5C 2127.65,1506.43 2129.48,1516.43 2131,1526.5C 2135.13,1559.69 2130.8,1591.69 2118,1622.5C 2111.15,1638.85 2099.98,1651.18 2084.5,1659.5C 2077.95,1660.68 2071.45,1660.68 2065,1659.5C 2058.91,1689.55 2051.41,1719.21 2042.5,1748.5C 1975.58,1938.09 1848.58,2069.75 1661.5,2143.5C 1661.17,2143.5 1660.83,2143.5 1660.5,2143.5C 1514.03,2195.79 1367.7,2195.46 1221.5,2142.5C 1221.17,2142.5 1220.83,2142.5 1220.5,2142.5C 1208.92,2137.72 1197.26,2132.89 1185.5,2128C 1017.78,2049.73 903.452,1923.23 842.5,1748.5C 833.137,1719.72 825.971,1690.38 821,1660.5C 814.333,1660.78 807.5,1660.45 800.5,1659.5C 785.489,1652.32 774.656,1640.99 768,1625.5C 750.402,1583 747.902,1539.67 760.5,1495.5C 763.847,1482.81 769.347,1471.14 777,1460.5C 787.848,1445.49 802.348,1438.82 820.5,1440.5C 846.479,1304.35 909.146,1188.51 1008.5,1093C 1009.17,1092.33 1009.83,1092.33 1010.5,1093C 1014.2,1097.04 1018.2,1100.7 1022.5,1104C 1054.65,1126.33 1090.31,1139.5 1129.5,1143.5 Z"/></g>
<g><path style="opacity:1" fill="#e0a286" d="M 1129.5,1143.5 C 1133.79,1144.49 1138.12,1145.32 1142.5,1146C 1234.64,1220.53 1339.64,1266.86 1457.5,1285C 1550.14,1297.89 1642.47,1295.89 1734.5,1279C 1816.1,1263.56 1895.6,1240.72 1973,1210.5C 1975.32,1212.47 1977.15,1214.8 1978.5,1217.5C 1976.8,1217.34 1975.13,1217.51 1973.5,1218C 1910.26,1242.64 1845.6,1262.64 1779.5,1278C 1701.15,1295.26 1621.81,1302.93 1541.5,1301C 1385.59,1295.33 1248.25,1242.83 1129.5,1143.5 Z"/></g>
<g><path style="opacity:1" fill="#373635" d="M 800.5,1659.5 C 807.5,1660.45 814.333,1660.78 821,1660.5C 825.971,1690.38 833.137,1719.72 842.5,1748.5C 826.198,1719.93 812.198,1690.27 800.5,1659.5 Z"/></g>
<g><path style="opacity:1" fill="#383636" d="M 2084.5,1659.5 C 2072.89,1690.38 2058.89,1720.05 2042.5,1748.5C 2051.41,1719.21 2058.91,1689.55 2065,1659.5C 2071.45,1660.68 2077.95,1660.68 2084.5,1659.5 Z"/></g>
<g><path style="opacity:1" fill="#e3a488" d="M 1221.5,2142.5 C 1367.7,2195.46 1514.03,2195.79 1660.5,2143.5C 1660.82,2147.23 1660.49,2150.89 1659.5,2154.5C 1554.17,2192.67 1446.17,2202.5 1335.5,2184C 1296.66,2176.96 1258.66,2166.79 1221.5,2153.5C 1221.5,2149.83 1221.5,2146.17 1221.5,2142.5 Z"/></g>
<g><path style="opacity:1" fill="#fcb697" d="M 1220.5,2142.5 C 1220.83,2142.5 1221.17,2142.5 1221.5,2142.5C 1221.5,2146.17 1221.5,2149.83 1221.5,2153.5C 1258.66,2166.79 1296.66,2176.96 1335.5,2184C 1446.17,2202.5 1554.17,2192.67 1659.5,2154.5C 1660.49,2150.89 1660.82,2147.23 1660.5,2143.5C 1660.83,2143.5 1661.17,2143.5 1661.5,2143.5C 1661.5,2207.5 1661.5,2271.5 1661.5,2335.5C 1660.57,2336.57 1660.23,2337.9 1660.5,2339.5C 1652.54,2416.96 1615.2,2475.46 1548.5,2515C 1486.97,2547.14 1423.63,2551.14 1358.5,2527C 1285.42,2494.91 1240.59,2439.74 1224,2361.5C 1222.65,2353.88 1221.82,2346.22 1221.5,2338.5C 1221.74,2337.21 1221.4,2336.21 1220.5,2335.5C 1220.5,2271.17 1220.5,2206.83 1220.5,2142.5 Z"/></g>
<g><path style="opacity:1" fill="#a87b9d" d="M 885.5,2336.5 C 996.999,2335.5 1108.67,2335.17 1220.5,2335.5C 1221.4,2336.21 1221.74,2337.21 1221.5,2338.5C 1109.71,2336.51 997.711,2335.84 885.5,2336.5 Z"/></g>
<g><path style="opacity:1" fill="#a87b9d" d="M 1661.5,2335.5 C 1771,2335.17 1880.33,2335.5 1989.5,2336.5C 1880.17,2336.5 1770.83,2336.5 1661.5,2336.5C 1661.74,2337.79 1661.4,2338.79 1660.5,2339.5C 1660.23,2337.9 1660.57,2336.57 1661.5,2335.5 Z"/></g>
<g><path style="opacity:1" fill="#6189e6" d="M 885.5,2336.5 C 997.711,2335.84 1109.71,2336.51 1221.5,2338.5C 1221.82,2346.22 1222.65,2353.88 1224,2361.5C 1240.59,2439.74 1285.42,2494.91 1358.5,2527C 1423.63,2551.14 1486.97,2547.14 1548.5,2515C 1615.2,2475.46 1652.54,2416.96 1660.5,2339.5C 1661.4,2338.79 1661.74,2337.79 1661.5,2336.5C 1770.83,2336.5 1880.17,2336.5 1989.5,2336.5C 2004.15,2338.58 2018.49,2342.08 2032.5,2347C 2092.37,2371.2 2139.87,2410.37 2175,2464.5C 2206.74,2516.04 2228.07,2571.71 2239,2631.5C 2239.38,2632.06 2239.88,2632.39 2240.5,2632.5C 2241.26,2635.14 2241.43,2637.81 2241,2640.5C 2240.33,2641.25 2239.5,2641.59 2238.5,2641.5C 2234.32,2643.09 2230.65,2645.42 2227.5,2648.5C 2192.48,2672.35 2155.81,2693.69 2117.5,2712.5C 2101.85,2719.66 2086.52,2727.33 2071.5,2735.5C 2016.99,2762.45 1960.65,2785.12 1902.5,2803.5C 1897.84,2804.06 1893.5,2805.39 1889.5,2807.5C 1749.18,2852.55 1605.18,2874.88 1457.5,2874.5C 1307.66,2874.86 1161.66,2851.86 1019.5,2805.5C 1010.78,2801.93 1001.78,2798.93 992.5,2796.5C 940.628,2779.39 890.295,2758.72 841.5,2734.5C 828.484,2727.33 815.151,2720.66 801.5,2714.5C 798.515,2713.67 795.849,2712.34 793.5,2710.5C 790.322,2707.74 786.655,2705.74 782.5,2704.5C 747.339,2686.76 713.672,2666.76 681.5,2644.5C 678.35,2641.42 674.683,2639.09 670.5,2637.5C 668.973,2637.57 667.973,2636.91 667.5,2635.5C 663.698,2631.76 659.365,2628.76 654.5,2626.5C 648.965,2623.81 643.799,2620.48 639,2616.5C 638.51,2614.45 638.677,2612.45 639.5,2610.5C 648.311,2577.91 659.478,2545.91 673,2514.5C 700.566,2452.28 743.066,2403.11 800.5,2367C 826.889,2351.37 855.222,2341.2 885.5,2336.5 Z"/></g>
<g><path style="opacity:0.49" fill="#8869af" d="M 654.5,2626.5 C 659.365,2628.76 663.698,2631.76 667.5,2635.5C 662.635,2633.24 658.302,2630.24 654.5,2626.5 Z"/></g>
<g><path style="opacity:0.49" fill="#8869af" d="M 670.5,2637.5 C 674.683,2639.09 678.35,2641.42 681.5,2644.5C 677.317,2642.91 673.65,2640.58 670.5,2637.5 Z"/></g>
<g><path style="opacity:0.49" fill="#8869af" d="M 2238.5,2641.5 C 2235.35,2644.58 2231.68,2646.91 2227.5,2648.5C 2230.65,2645.42 2234.32,2643.09 2238.5,2641.5 Z"/></g>
<g><path style="opacity:0.49" fill="#8a68ad" d="M 782.5,2704.5 C 786.655,2705.74 790.322,2707.74 793.5,2710.5C 789.345,2709.26 785.678,2707.26 782.5,2704.5 Z"/></g>
<g><path style="opacity:0.49" fill="#8969ae" d="M 2117.5,2712.5 C 2102.75,2721.21 2087.42,2728.87 2071.5,2735.5C 2086.52,2727.33 2101.85,2719.66 2117.5,2712.5 Z"/></g>
<g><path style="opacity:0.49" fill="#8968ae" d="M 801.5,2714.5 C 815.151,2720.66 828.484,2727.33 841.5,2734.5C 827.581,2728.87 814.248,2722.21 801.5,2714.5 Z"/></g>
<g><path style="opacity:0.486" fill="#8969ae" d="M 992.5,2796.5 C 1001.78,2798.93 1010.78,2801.93 1019.5,2805.5C 1010.09,2803.47 1001.09,2800.47 992.5,2796.5 Z"/></g>
<g><path style="opacity:0.486" fill="#8968ae" d="M 1902.5,2803.5 C 1898.5,2805.61 1894.16,2806.94 1889.5,2807.5C 1893.5,2805.39 1897.84,2804.06 1902.5,2803.5 Z"/></g>
</svg>
