<?xml version="1.0" encoding="UTF-8"?>
<!DOCTYPE svg PUBLIC "-//W3C//DTD SVG 1.1//EN" "http://www.w3.org/Graphics/SVG/1.1/DTD/svg11.dtd">
<svg xmlns="http://www.w3.org/2000/svg" version="1.1" width="1624px" height="1473px" style="shape-rendering:geometricPrecision; text-rendering:geometricPrecision; image-rendering:optimizeQuality; fill-rule:evenodd; clip-rule:evenodd" xmlns:xlink="http://www.w3.org/1999/xlink">
<g><path style="opacity:0.955" fill="#273339" d="M 872.5,95.5 C 870.864,81.0383 870.031,66.3716 870,51.5C 867.333,54.1667 864.667,54.1667 862,51.5C 860.883,53.1243 859.383,54.1243 857.5,54.5C 854.932,53.4411 852.765,51.7744 851,49.5C 850,51.8333 849,54.1667 848,56.5C 841.34,51.1636 836.673,44.4969 834,36.5C 832.123,43.1414 829.29,49.308 825.5,55C 820.452,55.9699 817.618,53.8033 817,48.5C 812.781,55.1226 807.614,56.1226 801.5,51.5C 799.689,52.7394 797.689,53.4061 795.5,53.5C 792.026,51.9437 788.859,52.277 786,54.5C 785.564,67.6051 784.231,80.6051 782,93.5C 780.334,96.3788 777.834,97.2121 774.5,96C 773.364,94.8549 772.364,93.6883 771.5,92.5C 771.5,91.8333 771.5,91.1667 771.5,90.5C 771.5,88.8333 771.5,87.1667 771.5,85.5C 769.194,85.9926 766.861,86.3259 764.5,86.5C 761.339,71.285 760.839,55.9516 763,40.5C 765.833,32.3333 771.333,26.8333 779.5,24C 778.449,22.6152 777.116,21.6152 775.5,21C 771.38,20.7542 767.38,20.5876 763.5,20.5C 768.025,17.523 772.692,17.1897 777.5,19.5C 778.287,16.1518 779.121,12.8185 780,9.5C 780.782,6.92421 782.282,4.92421 784.5,3.5C 784.833,3.83333 785.167,4.16667 785.5,4.5C 781.42,10.0551 780.587,16.0551 783,22.5C 790.298,13.6102 799.132,6.77685 809.5,2C 819.72,-0.43236 829.72,0.234306 839.5,4C 847.5,4.33333 855.5,4.66667 863.5,5C 877.909,8.395 885.242,17.395 885.5,32C 884.69,44.8283 884.524,57.6616 885,70.5C 881.88,79.4074 877.713,87.7407 872.5,95.5 Z"/></g>
<g><path style="opacity:1" fill="#384951" d="M 819.5,5.5 C 831.21,3.2908 840.876,6.62413 848.5,15.5C 848.333,15.8333 848.167,16.1667 848,16.5C 840.328,7.94604 830.828,5.1127 819.5,8C 827.801,9.95659 831.968,15.1233 832,23.5C 831.106,16.9432 827.606,12.4432 821.5,10C 815.342,9.27056 809.342,9.6039 803.5,11C 808.786,8.84969 814.119,7.01636 819.5,5.5 Z"/></g>
<g><path style="opacity:0.989" fill="#fdbd9c" d="M 872.5,95.5 C 872.79,107.976 870.624,119.976 866,131.5C 861.185,140.826 853.685,146.493 843.5,148.5C 833.494,147.885 823.494,146.718 813.5,145C 815.928,148.098 818.928,150.431 822.5,152C 828.697,153.886 835.03,154.72 841.5,154.5C 838.775,167.06 831.108,174.893 818.5,178C 797.131,179.461 784.797,169.628 781.5,148.5C 781.304,138.114 780.47,127.781 779,117.5C 763.684,116.168 757.351,107.835 760,92.5C 760.566,89.7713 762.066,87.7713 764.5,86.5C 766.861,86.3259 769.194,85.9926 771.5,85.5C 771.5,87.1667 771.5,88.8333 771.5,90.5C 766.95,91.4075 764.95,94.2408 765.5,99C 765.157,104.98 767.824,107.98 773.5,108C 771.152,107.654 769.319,106.487 768,104.5C 767.333,101.167 767.333,97.8333 768,94.5C 768.71,93.0267 769.876,92.3601 771.5,92.5C 772.364,93.6883 773.364,94.8549 774.5,96C 777.834,97.2121 780.334,96.3788 782,93.5C 784.231,80.6051 785.564,67.6051 786,54.5C 788.859,52.277 792.026,51.9437 795.5,53.5C 797.689,53.4061 799.689,52.7394 801.5,51.5C 807.614,56.1226 812.781,55.1226 817,48.5C 817.618,53.8033 820.452,55.9699 825.5,55C 829.29,49.308 832.123,43.1414 834,36.5C 836.673,44.4969 841.34,51.1636 848,56.5C 849,54.1667 850,51.8333 851,49.5C 852.765,51.7744 854.932,53.4411 857.5,54.5C 859.383,54.1243 860.883,53.1243 862,51.5C 864.667,54.1667 867.333,54.1667 870,51.5C 870.031,66.3716 870.864,81.0383 872.5,95.5 Z"/></g>
<g><path style="opacity:1" fill="#353b3f" d="M 850.5,60.5 C 853.278,60.0217 855.278,61.0217 856.5,63.5C 852.857,65.3948 850.857,64.3948 850.5,60.5 Z"/></g>
<g><path style="opacity:1" fill="#30383c" d="M 801.5,62.5 C 804.397,62.1253 807.063,62.6253 809.5,64C 805.711,65.4876 801.878,66.9876 798,68.5C 796.743,68.1501 796.409,67.4835 797,66.5C 798.397,64.9297 799.897,63.5964 801.5,62.5 Z"/></g>
<g><path style="opacity:1" fill="#2e373b" d="M 847.5,75.5 C 852.244,75.0395 856.244,76.5395 859.5,80C 856.434,79.4128 853.268,78.9128 850,78.5C 847.41,78.3757 845.077,79.0423 843,80.5C 842.333,79.8333 842.333,79.1667 843,78.5C 844.652,77.6006 846.152,76.6006 847.5,75.5 Z"/></g>
<g><path style="opacity:1" fill="#333a3e" d="M 800.5,76.5 C 805.561,75.6652 809.895,76.9986 813.5,80.5C 808.56,79.3776 803.393,79.3776 798,80.5C 797.5,80.3333 797,80.1667 796.5,80C 797.731,78.5952 799.064,77.4286 800.5,76.5 Z"/></g>
<g><path style="opacity:1" fill="#2f373c" d="M 802.5,84.5 C 808.164,85.1594 809.497,87.8261 806.5,92.5C 802.559,94.4374 800.226,93.2707 799.5,89C 799.557,86.7911 800.557,85.2911 802.5,84.5 Z"/></g>
<g><path style="opacity:1" fill="#333a3e" d="M 846.5,82.5 C 852.643,83.0262 853.976,85.8595 850.5,91C 843,91.1959 841.667,88.3626 846.5,82.5 Z"/></g>
<g><path style="opacity:0.997" fill="#eaeaea" d="M 986.5,1288.5 C 957.15,1108.73 928.317,928.729 900,748.5C 899.487,747.473 898.987,746.473 898.5,745.5C 896.937,729.2 895.77,712.867 895,696.5C 893.686,635.838 893.353,575.171 894,514.5C 895.306,509.065 897.473,504.065 900.5,499.5C 919.61,492.954 938.944,486.954 958.5,481.5C 959.932,481.267 960.432,480.6 960,479.5C 958.871,477.859 957.371,476.859 955.5,476.5C 953.035,476.233 950.701,475.566 948.5,474.5C 962.649,469.296 977.316,465.629 992.5,463.5C 1000.13,462.014 1005.47,457.681 1008.5,450.5C 1008.38,449.893 1008.04,449.56 1007.5,449.5C 1026.28,443.364 1045.28,437.531 1064.5,432C 1089.46,421.022 1101.29,401.855 1100,374.5C 1082.67,324.863 1064.34,275.53 1045,226.5C 1043.12,218.308 1040.95,210.308 1038.5,202.5C 1037.83,199.5 1037.17,196.5 1036.5,193.5C 1037.26,190.648 1037.26,187.981 1036.5,185.5C 1036.5,184.833 1036.5,184.167 1036.5,183.5C 1037.5,183.586 1038.33,183.252 1039,182.5C 1039.49,180.455 1039.32,178.455 1038.5,176.5C 1040.02,175.809 1041.02,174.642 1041.5,173C 1039.28,168.418 1037.78,163.585 1037,158.5C 1033.04,154.09 1028.54,153.423 1023.5,156.5C 1024.75,153.994 1025.42,151.327 1025.5,148.5C 1014.17,149.993 1003.17,153.493 992.5,159C 990.266,161.063 988.266,163.229 986.5,165.5C 987.381,159.216 984.714,156.383 978.5,157C 977.142,161.547 975.142,165.714 972.5,169.5C 956.641,175.064 940.808,180.731 925,186.5C 920.323,185.662 915.823,184.329 911.5,182.5C 901.325,177.884 891.325,172.884 881.5,167.5C 964.86,99.7042 1058.53,80.8708 1162.5,111C 1263.28,145.447 1339.45,209.281 1391,302.5C 1429.84,375.978 1451.5,454.311 1456,537.5C 1463.63,671.269 1436.97,797.602 1376,916.5C 1297.97,1066.2 1185.14,1182.03 1037.5,1264C 1020.75,1272.71 1003.75,1280.88 986.5,1288.5 Z"/></g>
<g><path style="opacity:1" fill="#3b3f41" d="M 834.5,91.5 C 837.357,94.5654 838.523,98.2321 838,102.5C 834.778,105.355 831.944,105.021 829.5,101.5C 829.667,101.167 829.833,100.833 830,100.5C 831.584,101.861 833.418,102.528 835.5,102.5C 835.448,98.8019 835.114,95.1352 834.5,91.5 Z"/></g>
<g><path style="opacity:1" fill="#ed9e75" d="M 771.5,90.5 C 771.5,91.1667 771.5,91.8333 771.5,92.5C 769.876,92.3601 768.71,93.0267 768,94.5C 767.333,97.8333 767.333,101.167 768,104.5C 769.319,106.487 771.152,107.654 773.5,108C 767.824,107.98 765.157,104.98 765.5,99C 764.95,94.2408 766.95,91.4075 771.5,90.5 Z"/></g>
<g><path style="opacity:1" fill="#393d40" d="M 816.5,109.5 C 818.962,112.294 821.962,114.294 825.5,115.5C 820.45,116.807 817.45,114.807 816.5,109.5 Z"/></g>
<g><path style="opacity:1" fill="#eb9a70" d="M 843.5,148.5 C 843.5,150.167 843.5,151.833 843.5,153.5C 842.833,153.833 842.167,154.167 841.5,154.5C 835.03,154.72 828.697,153.886 822.5,152C 818.928,150.431 815.928,148.098 813.5,145C 823.494,146.718 833.494,147.885 843.5,148.5 Z"/></g>
<g><path style="opacity:1" fill="#febd9c" d="M 1025.5,148.5 C 1022.27,156.476 1016.27,161.143 1007.5,162.5C 1008.05,167.559 1006.72,172.059 1003.5,176C 1005.11,176.089 1006.28,175.255 1007,173.5C 1008.15,170.232 1008.98,166.899 1009.5,163.5C 1014.72,162.224 1019.38,159.891 1023.5,156.5C 1028.54,153.423 1033.04,154.09 1037,158.5C 1037.78,163.585 1039.28,168.418 1041.5,173C 1041.02,174.642 1040.02,175.809 1038.5,176.5C 1038.26,175.903 1037.76,175.57 1037,175.5C 1031.06,177.91 1024.9,178.91 1018.5,178.5C 1018.28,177.325 1018.61,176.325 1019.5,175.5C 1024.78,173.572 1030.12,171.738 1035.5,170C 1030.54,169.911 1025.7,170.744 1021,172.5C 1017.72,172.3 1016.88,170.8 1018.5,168C 1022.56,165.302 1026.9,163.135 1031.5,161.5C 1029.02,157.478 1027.69,157.478 1027.5,161.5C 1022.95,162.69 1019.12,165.024 1016,168.5C 1015.24,170.809 1015.74,172.809 1017.5,174.5C 1015.86,178.385 1017.2,180.552 1021.5,181C 1019.4,182.733 1019.07,184.733 1020.5,187C 1025.88,187.225 1031.22,186.725 1036.5,185.5C 1037.26,187.981 1037.26,190.648 1036.5,193.5C 1035.74,192.609 1034.74,191.942 1033.5,191.5C 1025.99,192.401 1018.49,193.401 1011,194.5C 1005.5,193.667 1000,192.834 994.5,192C 992,188.167 989.5,184.333 987,180.5C 986.501,175.511 986.334,170.511 986.5,165.5C 988.266,163.229 990.266,161.063 992.5,159C 1003.17,153.493 1014.17,149.993 1025.5,148.5 Z"/></g>
<g><path style="opacity:0.992" fill="#6189e6" d="M 781.5,148.5 C 784.797,169.628 797.131,179.461 818.5,178C 831.108,174.893 838.775,167.06 841.5,154.5C 842.167,154.167 842.833,153.833 843.5,153.5C 856.998,155.916 869.664,160.582 881.5,167.5C 891.325,172.884 901.325,177.884 911.5,182.5C 906.791,196.043 902.458,209.709 898.5,223.5C 897.596,224.209 897.263,225.209 897.5,226.5C 890.409,226.136 883.409,225.136 876.5,223.5C 875.791,222.596 874.791,222.263 873.5,222.5C 869.221,222.029 865.888,220.029 863.5,216.5C 853.959,204.457 850.793,190.79 854,175.5C 855.711,171.01 857.378,166.676 859,162.5C 850.423,174.354 848.257,187.354 852.5,201.5C 854.409,220.043 858.576,238.043 865,255.5C 867.257,260.577 870.424,264.91 874.5,268.5C 875.497,285.992 875.83,303.659 875.5,321.5C 871.486,321.334 867.486,321.501 863.5,322C 855.939,325.283 848.606,328.783 841.5,332.5C 832.782,335.595 823.782,337.262 814.5,337.5C 813.791,326.629 813.124,315.629 812.5,304.5C 814.819,304.008 816.819,303.008 818.5,301.5C 825.119,300.879 829.785,297.546 832.5,291.5C 840.523,284.972 847.357,277.305 853,268.5C 854.955,265.281 856.288,261.947 857,258.5C 854,263.5 851,268.5 848,273.5C 846.961,274.71 845.794,275.71 844.5,276.5C 840.152,277.175 836.485,279.175 833.5,282.5C 833.653,273.994 829.653,268.66 821.5,266.5C 826.005,250.129 827.839,233.462 827,216.5C 823.948,200.448 814.448,190.615 798.5,187C 794.738,186.073 791.238,186.573 788,188.5C 781.469,176.307 771.302,169.14 757.5,167C 750.679,166.124 744.012,166.791 737.5,169C 729.441,173.563 722.108,179.063 715.5,185.5C 715.118,181.668 713.785,178.335 711.5,175.5C 711.708,171.856 713.708,169.689 717.5,169C 729.5,164.333 741.5,159.667 753.5,155C 762.798,152.508 772.131,150.341 781.5,148.5 Z"/></g>
<g><path style="opacity:0.962" fill="#febd9c" d="M 556.5,155.5 C 566.179,158.56 575.846,161.726 585.5,165C 589.027,167.362 592.027,170.196 594.5,173.5C 596.339,183.551 594.006,192.384 587.5,200C 581.213,201.398 574.88,202.565 568.5,203.5C 560.517,202.312 552.517,201.312 544.5,200.5C 542.7,194.372 541.033,187.872 539.5,181C 540.975,177.72 541.808,174.22 542,170.5C 544.66,163.669 549.493,161.335 556.5,163.5C 556.5,164.167 556.833,164.5 557.5,164.5C 561.559,168.884 566.559,171.551 572.5,172.5C 572.29,177.416 573.79,181.749 577,185.5C 575.388,180.71 574.221,175.71 573.5,170.5C 563.828,169.857 558.161,164.857 556.5,155.5 Z"/></g>
<g><path style="opacity:1" fill="#febd9d" d="M 1038.5,202.5 C 1040.95,210.308 1043.12,218.308 1045,226.5C 1064.34,275.53 1082.67,324.863 1100,374.5C 1101.29,401.855 1089.46,421.022 1064.5,432C 1045.28,437.531 1026.28,443.364 1007.5,449.5C 999.808,451.51 992.141,453.51 984.5,455.5C 977.95,444.361 973.45,432.361 971,419.5C 967.628,403.136 966.795,386.802 968.5,370.5C 986.714,367.299 1005.05,364.632 1023.5,362.5C 1023.92,361.778 1024.58,361.278 1025.5,361C 1015.39,316.615 1005.56,272.115 996,227.5C 989.667,220.5 983.333,213.5 977,206.5C 976.51,205.207 976.343,203.873 976.5,202.5C 977.147,201.726 977.48,200.726 977.5,199.5C 976.425,191.126 975.092,182.793 973.5,174.5C 974.709,170.411 976.209,166.411 978,162.5C 979.101,158.4 981.101,157.733 984,160.5C 984.333,167.5 984.667,174.5 985,181.5C 987.167,185.167 989.333,188.833 991.5,192.5C 1001.71,193.941 1011.05,197.608 1019.5,203.5C 1019.83,203.333 1020.17,203.167 1020.5,203C 1018.35,200.763 1016.02,198.763 1013.5,197C 1019.76,195.426 1026.09,194.259 1032.5,193.5C 1033.65,193.818 1034.48,194.484 1035,195.5C 1035.8,198.893 1036.8,202.226 1038,205.5C 1038.48,204.552 1038.65,203.552 1038.5,202.5 Z"/></g>
<g><path style="opacity:1" fill="#ed9e74" d="M 1025.5,148.5 C 1025.42,151.327 1024.75,153.994 1023.5,156.5C 1019.38,159.891 1014.72,162.224 1009.5,163.5C 1008.98,166.899 1008.15,170.232 1007,173.5C 1006.28,175.255 1005.11,176.089 1003.5,176C 1006.72,172.059 1008.05,167.559 1007.5,162.5C 1016.27,161.143 1022.27,156.476 1025.5,148.5 Z"/></g>
<g><path style="opacity:0.98" fill="#ee9e74" d="M 556.5,155.5 C 558.161,164.857 563.828,169.857 573.5,170.5C 574.221,175.71 575.388,180.71 577,185.5C 573.79,181.749 572.29,177.416 572.5,172.5C 566.559,171.551 561.559,168.884 557.5,164.5C 556.833,164.5 556.5,164.167 556.5,163.5C 555.148,160.124 555.148,157.457 556.5,155.5 Z"/></g>
<g><path style="opacity:0.981" fill="#febd9c" d="M 585.5,236.5 C 576.167,280.831 566.834,325.164 557.5,369.5C 571.789,371.791 586.122,373.791 600.5,375.5C 598.067,380.161 597.067,385.161 597.5,390.5C 598.721,410.597 600.721,430.597 603.5,450.5C 603.5,452.833 603.5,455.167 603.5,457.5C 595.428,457.403 587.428,458.07 579.5,459.5C 559.503,453.667 539.503,447.834 519.5,442C 498.501,434.671 485.668,420.171 481,398.5C 479.754,388.587 480.754,378.92 484,369.5C 501.584,322.677 519.418,276.011 537.5,229.5C 538.117,229.389 538.617,229.056 539,228.5C 541.196,219.713 543.696,211.046 546.5,202.5C 553.89,203.34 561.223,204.507 568.5,206C 565.476,207.513 562.809,209.513 560.5,212C 560.833,212.167 561.167,212.333 561.5,212.5C 569.497,206.554 578.497,203.054 588.5,202C 591.373,198.423 593.873,194.589 596,190.5C 596.333,183.5 596.667,176.5 597,169.5C 598.113,167.671 599.613,166.837 601.5,167C 604.497,172.326 606.497,177.992 607.5,184C 606.001,194.158 604.501,204.325 603,214.5C 596.168,221.151 590.335,228.484 585.5,236.5 Z"/></g>
<g><path style="opacity:0.997" fill="#263238" d="M 821.5,266.5 C 818.449,266.364 815.449,266.698 812.5,267.5C 810.502,269.962 808.168,272.128 805.5,274C 802.653,274.944 800.153,274.444 798,272.5C 789.38,254.37 786.047,235.37 788,215.5C 766.325,194.866 747.658,197.199 732,222.5C 722.494,233.837 710.327,239.504 695.5,239.5C 695.818,244.032 695.485,248.366 694.5,252.5C 686.752,253.305 679.918,250.972 674,245.5C 670.627,240.176 669.793,234.51 671.5,228.5C 673.266,226.229 675.266,224.063 677.5,222C 663.871,217.767 659.371,208.934 664,195.5C 667.155,191.826 670.655,188.826 674.5,186.5C 674.833,186.5 675.167,186.5 675.5,186.5C 684.213,187.343 693.046,188.343 702,189.5C 707.208,190.206 711.708,188.873 715.5,185.5C 722.108,179.063 729.441,173.563 737.5,169C 744.012,166.791 750.679,166.124 757.5,167C 771.302,169.14 781.469,176.307 788,188.5C 791.238,186.573 794.738,186.073 798.5,187C 814.448,190.615 823.948,200.448 827,216.5C 827.839,233.462 826.005,250.129 821.5,266.5 Z"/></g>
<g><path style="opacity:1" fill="#febd9d" d="M 972.5,169.5 C 972.971,180.314 974.304,190.981 976.5,201.5C 962.684,209.577 948.684,217.41 934.5,225C 922.199,228.588 910.199,228.088 898.5,223.5C 902.458,209.709 906.791,196.043 911.5,182.5C 915.823,184.329 920.323,185.662 925,186.5C 940.808,180.731 956.641,175.064 972.5,169.5 Z"/></g>
<g><path style="opacity:1" fill="#ed9d73" d="M 1038.5,176.5 C 1034.14,177.842 1029.81,179.342 1025.5,181C 1020.89,182.907 1020.72,184.407 1025,185.5C 1028.86,184.895 1032.69,184.228 1036.5,183.5C 1036.5,184.167 1036.5,184.833 1036.5,185.5C 1031.22,186.725 1025.88,187.225 1020.5,187C 1019.07,184.733 1019.4,182.733 1021.5,181C 1017.2,180.552 1015.86,178.385 1017.5,174.5C 1015.74,172.809 1015.24,170.809 1016,168.5C 1019.12,165.024 1022.95,162.69 1027.5,161.5C 1027.69,157.478 1029.02,157.478 1031.5,161.5C 1026.9,163.135 1022.56,165.302 1018.5,168C 1016.88,170.8 1017.72,172.3 1021,172.5C 1025.7,170.744 1030.54,169.911 1035.5,170C 1030.12,171.738 1024.78,173.572 1019.5,175.5C 1018.61,176.325 1018.28,177.325 1018.5,178.5C 1024.9,178.91 1031.06,177.91 1037,175.5C 1037.76,175.57 1038.26,175.903 1038.5,176.5 Z"/></g>
<g><path style="opacity:0.956" fill="#febd9c" d="M 607.5,176.5 C 628.473,180.258 649.473,183.925 670.5,187.5C 671.925,187.377 673.258,187.043 674.5,186.5C 670.655,188.826 667.155,191.826 664,195.5C 659.371,208.934 663.871,217.767 677.5,222C 675.266,224.063 673.266,226.229 671.5,228.5C 649.383,222.572 627.383,216.239 605.5,209.5C 606.508,200.626 607.841,191.793 609.5,183C 608.967,180.774 608.3,178.607 607.5,176.5 Z"/></g>
<g><path style="opacity:0.897" fill="#f6b99a" d="M 711.5,175.5 C 713.785,178.335 715.118,181.668 715.5,185.5C 711.708,188.873 707.208,190.206 702,189.5C 693.046,188.343 684.213,187.343 675.5,186.5C 687.625,183.236 699.625,179.569 711.5,175.5 Z"/></g>
<g><path style="opacity:1" fill="#febd9d" d="M 1038.5,176.5 C 1039.32,178.455 1039.49,180.455 1039,182.5C 1038.33,183.252 1037.5,183.586 1036.5,183.5C 1032.69,184.228 1028.86,184.895 1025,185.5C 1020.72,184.407 1020.89,182.907 1025.5,181C 1029.81,179.342 1034.14,177.842 1038.5,176.5 Z"/></g>
<g><path style="opacity:1" fill="#2d3b4d" d="M 863.5,216.5 C 863.565,216.938 863.399,217.272 863,217.5C 858.73,212.615 855.23,207.281 852.5,201.5C 848.257,187.354 850.423,174.354 859,162.5C 857.378,166.676 855.711,171.01 854,175.5C 850.793,190.79 853.959,204.457 863.5,216.5 Z"/></g>
<g><path style="opacity:1" fill="#ed9d74" d="M 986.5,165.5 C 986.334,170.511 986.501,175.511 987,180.5C 989.5,184.333 992,188.167 994.5,192C 1000,192.834 1005.5,193.667 1011,194.5C 1018.49,193.401 1025.99,192.401 1033.5,191.5C 1034.74,191.942 1035.74,192.609 1036.5,193.5C 1037.17,196.5 1037.83,199.5 1038.5,202.5C 1038.65,203.552 1038.48,204.552 1038,205.5C 1036.8,202.226 1035.8,198.893 1035,195.5C 1034.48,194.484 1033.65,193.818 1032.5,193.5C 1026.09,194.259 1019.76,195.426 1013.5,197C 1016.02,198.763 1018.35,200.763 1020.5,203C 1020.17,203.167 1019.83,203.333 1019.5,203.5C 1011.05,197.608 1001.71,193.941 991.5,192.5C 989.333,188.833 987.167,185.167 985,181.5C 984.667,174.5 984.333,167.5 984,160.5C 981.101,157.733 979.101,158.4 978,162.5C 976.209,166.411 974.709,170.411 973.5,174.5C 975.092,182.793 976.425,191.126 977.5,199.5C 977.48,200.726 977.147,201.726 976.5,202.5C 976.5,202.167 976.5,201.833 976.5,201.5C 974.304,190.981 972.971,180.314 972.5,169.5C 975.142,165.714 977.142,161.547 978.5,157C 984.714,156.383 987.381,159.216 986.5,165.5 Z"/></g>
<g><path style="opacity:1" fill="#ed9d74" d="M 551.5,167.5 C 553.648,167.389 553.981,168.056 552.5,169.5C 556.9,171.449 561.067,173.783 565,176.5C 564.47,180.262 564.137,183.928 564,187.5C 562.829,188.893 561.329,189.727 559.5,190C 561.602,191.733 561.935,193.733 560.5,196C 554.86,196.672 549.526,195.672 544.5,193C 549.393,193.902 554.393,194.402 559.5,194.5C 559.719,193.325 559.386,192.325 558.5,191.5C 553.24,189.033 547.907,186.866 542.5,185C 549.024,186.456 555.691,187.29 562.5,187.5C 562.719,186.325 562.386,185.325 561.5,184.5C 555.694,182.621 550.027,180.455 544.5,178C 550.69,179.404 557.024,180.237 563.5,180.5C 563.703,178.61 563.037,177.11 561.5,176C 557.611,173.888 553.611,172.055 549.5,170.5C 550.193,169.482 550.859,168.482 551.5,167.5 Z"/></g>
<g><path style="opacity:1" fill="#ec9b71" d="M 607.5,176.5 C 608.3,178.607 608.967,180.774 609.5,183C 607.841,191.793 606.508,200.626 605.5,209.5C 605.662,211.527 605.495,213.527 605,215.5C 598.634,222.697 592.134,229.697 585.5,236.5C 590.335,228.484 596.168,221.151 603,214.5C 604.501,204.325 606.001,194.158 607.5,184C 606.497,177.992 604.497,172.326 601.5,167C 599.613,166.837 598.113,167.671 597,169.5C 596.667,176.5 596.333,183.5 596,190.5C 593.873,194.589 591.373,198.423 588.5,202C 578.497,203.054 569.497,206.554 561.5,212.5C 561.167,212.333 560.833,212.167 560.5,212C 562.809,209.513 565.476,207.513 568.5,206C 561.223,204.507 553.89,203.34 546.5,202.5C 543.696,211.046 541.196,219.713 539,228.5C 538.617,229.056 538.117,229.389 537.5,229.5C 539.707,219.797 542.04,210.131 544.5,200.5C 552.517,201.312 560.517,202.312 568.5,203.5C 574.88,202.565 581.213,201.398 587.5,200C 594.006,192.384 596.339,183.551 594.5,173.5C 593.857,166.468 596.857,163.801 603.5,165.5C 605.632,168.896 606.965,172.563 607.5,176.5 Z"/></g>
<g><path style="opacity:0.997" fill="#fdbd9c" d="M 821.5,266.5 C 829.653,268.66 833.653,273.994 833.5,282.5C 833.5,284.5 833.5,286.5 833.5,288.5C 832.596,289.209 832.263,290.209 832.5,291.5C 829.785,297.546 825.119,300.879 818.5,301.5C 816.5,301.5 814.5,301.5 812.5,301.5C 812.5,302.5 812.5,303.5 812.5,304.5C 813.124,315.629 813.791,326.629 814.5,337.5C 814.54,350.509 814.874,363.509 815.5,376.5C 816.262,389.445 811.262,399.279 800.5,406C 782.26,412.712 764.594,411.545 747.5,402.5C 741.284,396.536 737.951,389.203 737.5,380.5C 737.5,376.167 737.5,371.833 737.5,367.5C 756.158,367.809 769.825,359.809 778.5,343.5C 778.167,343.167 777.833,342.833 777.5,342.5C 764.094,353.192 748.76,358.525 731.5,358.5C 721.118,356.725 712.618,351.725 706,343.5C 703.726,338.613 701.226,333.946 698.5,329.5C 696.109,303.895 694.775,278.229 694.5,252.5C 695.485,248.366 695.818,244.032 695.5,239.5C 710.327,239.504 722.494,233.837 732,222.5C 747.658,197.199 766.325,194.866 788,215.5C 786.047,235.37 789.38,254.37 798,272.5C 800.153,274.444 802.653,274.944 805.5,274C 808.168,272.128 810.502,269.962 812.5,267.5C 815.449,266.698 818.449,266.364 821.5,266.5 Z"/></g>
<g><path style="opacity:1" fill="#eaeaea" d="M 976.5,201.5 C 976.5,201.833 976.5,202.167 976.5,202.5C 976.343,203.873 976.51,205.207 977,206.5C 983.333,213.5 989.667,220.5 996,227.5C 1005.56,272.115 1015.39,316.615 1025.5,361C 1024.58,361.278 1023.92,361.778 1023.5,362.5C 1005.05,364.632 986.714,367.299 968.5,370.5C 955.918,369.74 943.252,370.407 930.5,372.5C 925.807,372.54 921.141,372.873 916.5,373.5C 912.365,354.536 902.699,339.036 887.5,327C 884.039,324.934 880.373,323.434 876.5,322.5C 876.5,321.833 876.167,321.5 875.5,321.5C 875.83,303.659 875.497,285.992 874.5,268.5C 874.5,257.833 874.5,247.167 874.5,236.5C 873.903,231.706 874.57,227.373 876.5,223.5C 883.409,225.136 890.409,226.136 897.5,226.5C 897.263,225.209 897.596,224.209 898.5,223.5C 910.199,228.088 922.199,228.588 934.5,225C 948.684,217.41 962.684,209.577 976.5,201.5 Z"/></g>
<g><path style="opacity:1" fill="#4460a1" d="M 852.5,201.5 C 855.23,207.281 858.73,212.615 863,217.5C 863.399,217.272 863.565,216.938 863.5,216.5C 865.888,220.029 869.221,222.029 873.5,222.5C 873.181,227.363 873.514,232.03 874.5,236.5C 874.5,247.167 874.5,257.833 874.5,268.5C 870.424,264.91 867.257,260.577 865,255.5C 858.576,238.043 854.409,220.043 852.5,201.5 Z"/></g>
<g><path style="opacity:1" fill="#8697bc" d="M 873.5,222.5 C 874.791,222.263 875.791,222.596 876.5,223.5C 874.57,227.373 873.903,231.706 874.5,236.5C 873.514,232.03 873.181,227.363 873.5,222.5 Z"/></g>
<g><path style="opacity:1" fill="#293339" d="M 755.5,232.5 C 759.182,232.335 762.848,232.501 766.5,233C 769.414,233.133 771.747,234.3 773.5,236.5C 765.833,237.833 758.167,237.833 750.5,236.5C 752.015,234.918 753.681,233.584 755.5,232.5 Z"/></g>
<g><path style="opacity:1" fill="#2f373c" d="M 708.5,240.5 C 712.911,240.021 717.078,240.688 721,242.5C 721.667,243.167 721.667,243.833 721,244.5C 715.575,245.434 710.075,246.101 704.5,246.5C 704.657,243.682 705.991,241.682 708.5,240.5 Z"/></g>
<g><path style="opacity:1" fill="#2c353a" d="M 760.5,250.5 C 765.177,250.059 769.177,251.392 772.5,254.5C 771.137,255.893 770.304,257.559 770,259.5C 764.164,263.153 761.331,261.486 761.5,254.5C 752.588,256.891 752.255,255.558 760.5,250.5 Z"/></g>
<g><path style="opacity:1" fill="#30383c" d="M 708.5,255.5 C 711.85,255.335 715.183,255.502 718.5,256C 722.88,257.177 723.714,259.677 721,263.5C 718,266.167 715,266.167 712,263.5C 711.51,262.207 711.343,260.873 711.5,259.5C 709.046,259.321 706.879,259.987 705,261.5C 704.5,261.167 704,260.833 703.5,260.5C 705.394,259.055 707.06,257.388 708.5,255.5 Z"/></g>
<g><path style="opacity:1" fill="#3b3f41" d="M 729.5,295.5 C 732.167,296.167 734.833,296.833 737.5,297.5C 734.15,297.665 730.817,297.498 727.5,297C 726.878,295.431 726.544,293.764 726.5,292C 728.841,279.131 732.341,266.631 737,254.5C 735.186,265.961 732.52,277.295 729,288.5C 728.204,291.039 728.371,293.372 729.5,295.5 Z"/></g>
<g><path style="opacity:1" fill="#26303b" d="M 832.5,291.5 C 832.263,290.209 832.596,289.209 833.5,288.5C 837.898,285.105 841.564,281.105 844.5,276.5C 845.794,275.71 846.961,274.71 848,273.5C 851,268.5 854,263.5 857,258.5C 856.288,261.947 854.955,265.281 853,268.5C 847.357,277.305 840.523,284.972 832.5,291.5 Z"/></g>
<g><path style="opacity:1" fill="#435f9e" d="M 844.5,276.5 C 841.564,281.105 837.898,285.105 833.5,288.5C 833.5,286.5 833.5,284.5 833.5,282.5C 836.485,279.175 840.152,277.175 844.5,276.5 Z"/></g>
<g><path style="opacity:1" fill="#ee9e75" d="M 819.5,273.5 C 824.906,274.756 827.573,278.256 827.5,284C 827.744,289.015 825.578,292.515 821,294.5C 819.941,294.37 819.108,293.87 818.5,293C 823.687,292.316 826.02,289.316 825.5,284C 825.943,280.048 824.443,277.215 821,275.5C 818.458,276.774 817.958,276.107 819.5,273.5 Z"/></g>
<g><path style="opacity:1" fill="#9a7d6e" d="M 729.5,295.5 C 733.048,295.095 736.381,295.595 739.5,297C 738.906,297.464 738.239,297.631 737.5,297.5C 734.833,296.833 732.167,296.167 729.5,295.5 Z"/></g>
<g><path style="opacity:1" fill="#32373f" d="M 818.5,301.5 C 816.819,303.008 814.819,304.008 812.5,304.5C 812.5,303.5 812.5,302.5 812.5,301.5C 814.5,301.5 816.5,301.5 818.5,301.5 Z"/></g>
<g><path style="opacity:1" fill="#32393d" d="M 754.5,298.5 C 757.147,306.1 754.48,311.267 746.5,314C 744.421,314.808 742.421,314.641 740.5,313.5C 748.658,311.678 753.325,306.678 754.5,298.5 Z"/></g>
<g><path style="opacity:1" fill="#263238" d="M 876.5,322.5 C 880.373,323.434 884.039,324.934 887.5,327C 902.699,339.036 912.365,354.536 916.5,373.5C 918.813,402.443 920.479,431.443 921.5,460.5C 919.901,460.232 918.568,460.566 917.5,461.5C 905.776,462.778 894.109,464.445 882.5,466.5C 880.856,466.19 879.856,465.19 879.5,463.5C 870.699,429.296 860.199,395.629 848,362.5C 848.557,368.055 850.057,373.388 852.5,378.5C 840.176,377.686 827.842,377.02 815.5,376.5C 814.874,363.509 814.54,350.509 814.5,337.5C 823.782,337.262 832.782,335.595 841.5,332.5C 842.239,332.369 842.906,332.536 843.5,333C 832.205,342.589 824.705,354.422 821,368.5C 829.272,347.396 843.772,332.396 864.5,323.5C 868.445,322.509 872.445,322.176 876.5,322.5 Z"/></g>
<g><path style="opacity:0.992" fill="#263238" d="M 698.5,329.5 C 701.226,333.946 703.726,338.613 706,343.5C 712.618,351.725 721.118,356.725 731.5,358.5C 733.265,359.461 735.265,359.795 737.5,359.5C 737.5,362.167 737.5,364.833 737.5,367.5C 737.5,371.833 737.5,376.167 737.5,380.5C 724.925,383.81 712.258,386.81 699.5,389.5C 704.935,385.723 708.935,380.723 711.5,374.5C 711.333,374.167 711.167,373.833 711,373.5C 707.044,379.79 702.044,385.124 696,389.5C 697.189,381.753 699.022,374.087 701.5,366.5C 701.263,363.937 700.763,363.937 700,366.5C 690.926,397.149 681.092,427.483 670.5,457.5C 670.127,460.574 669.461,463.574 668.5,466.5C 665.208,466.353 662.208,465.353 659.5,463.5C 647.333,458.889 635.333,453.889 623.5,448.5C 620.2,448.493 618.2,446.993 617.5,444C 622.442,421.122 627.442,398.289 632.5,375.5C 634.134,366.738 638.467,359.572 645.5,354C 657.5,347.667 669.5,341.333 681.5,335C 687.126,333.011 692.793,331.177 698.5,329.5 Z"/></g>
<g><path style="opacity:1" fill="#425661" d="M 875.5,321.5 C 876.167,321.5 876.5,321.833 876.5,322.5C 872.445,322.176 868.445,322.509 864.5,323.5C 843.772,332.396 829.272,347.396 821,368.5C 824.705,354.422 832.205,342.589 843.5,333C 842.906,332.536 842.239,332.369 841.5,332.5C 848.606,328.783 855.939,325.283 863.5,322C 867.486,321.501 871.486,321.334 875.5,321.5 Z"/></g>
<g><path style="opacity:1" fill="#eb9a70" d="M 737.5,367.5 C 737.5,364.833 737.5,362.167 737.5,359.5C 735.265,359.795 733.265,359.461 731.5,358.5C 748.76,358.525 764.094,353.192 777.5,342.5C 777.833,342.833 778.167,343.167 778.5,343.5C 769.825,359.809 756.158,367.809 737.5,367.5 Z"/></g>
<g><path style="opacity:1" fill="#618ae6" d="M 968.5,370.5 C 966.795,386.802 967.628,403.136 971,419.5C 973.45,432.361 977.95,444.361 984.5,455.5C 986.86,458.527 989.527,461.194 992.5,463.5C 977.316,465.629 962.649,469.296 948.5,474.5C 946.214,474.405 944.214,473.738 942.5,472.5C 946.296,460.505 947.463,448.171 946,435.5C 944.967,426.703 943.3,418.036 941,409.5C 937.184,397.224 933.684,384.89 930.5,372.5C 943.252,370.407 955.918,369.74 968.5,370.5 Z"/></g>
<g><path style="opacity:1" fill="#ee9f76" d="M 1023.5,362.5 C 1027.53,371.414 1030.69,380.747 1033,390.5C 1027.96,381.868 1024.79,372.534 1023.5,362.5 Z"/></g>
<g><path style="opacity:1" fill="#4460a0" d="M 930.5,372.5 C 933.684,384.89 937.184,397.224 941,409.5C 943.3,418.036 944.967,426.703 946,435.5C 947.463,448.171 946.296,460.505 942.5,472.5C 935.088,471.876 927.754,470.709 920.5,469C 918.7,466.886 917.7,464.386 917.5,461.5C 918.568,460.566 919.901,460.232 921.5,460.5C 920.479,431.443 918.813,402.443 916.5,373.5C 921.141,372.873 925.807,372.54 930.5,372.5 Z"/></g>
<g><path style="opacity:0.988" fill="#6189e6" d="M 632.5,375.5 C 627.442,398.289 622.442,421.122 617.5,444C 618.2,446.993 620.2,448.493 623.5,448.5C 623.78,451.272 623.113,453.772 621.5,456C 615.843,456.499 610.176,456.666 604.5,456.5C 604.795,454.265 604.461,452.265 603.5,450.5C 600.721,430.597 598.721,410.597 597.5,390.5C 597.067,385.161 598.067,380.161 600.5,375.5C 611.101,374.493 621.768,374.493 632.5,375.5 Z"/></g>
<g><path style="opacity:0.998" fill="#6189e6" d="M 815.5,376.5 C 827.842,377.02 840.176,377.686 852.5,378.5C 860.7,407.197 869.7,435.53 879.5,463.5C 879.856,465.19 880.856,466.19 882.5,466.5C 884.836,475.862 887.169,485.195 889.5,494.5C 889.699,496.96 890.365,499.293 891.5,501.5C 894.332,500.42 897.165,499.42 900,498.5C 900.399,498.728 900.565,499.062 900.5,499.5C 897.473,504.065 895.306,509.065 894,514.5C 893.353,575.171 893.686,635.838 895,696.5C 895.77,712.867 896.937,729.2 898.5,745.5C 880.038,739.15 861.038,736.65 841.5,738C 827.286,742.272 813.619,747.938 800.5,755C 756.326,769.994 712.659,768.827 669.5,751.5C 664.443,748.887 659.61,745.887 655,742.5C 654.826,725.659 654.659,708.992 654.5,692.5C 656.4,635.146 658.734,577.813 661.5,520.5C 660.282,511.88 659.615,503.213 659.5,494.5C 656.215,494.072 653.215,493.072 650.5,491.5C 653.568,490.978 656.568,490.145 659.5,489C 671.993,479.173 681.493,467.007 688,452.5C 689.833,450.667 691.667,448.833 693.5,447C 705.215,440.142 717.215,433.809 729.5,428C 736.626,420.231 742.626,411.731 747.5,402.5C 764.594,411.545 782.26,412.712 800.5,406C 811.262,399.279 816.262,389.445 815.5,376.5 Z"/></g>
<g><path style="opacity:1" fill="#4460a0" d="M 737.5,380.5 C 737.951,389.203 741.284,396.536 747.5,402.5C 742.626,411.731 736.626,420.231 729.5,428C 717.215,433.809 705.215,440.142 693.5,447C 691.667,448.833 689.833,450.667 688,452.5C 681.493,467.007 671.993,479.173 659.5,489C 656.568,490.145 653.568,490.978 650.5,491.5C 650.167,491.5 649.833,491.5 649.5,491.5C 649.433,490.041 649.766,488.708 650.5,487.5C 653.509,479.486 656.509,471.486 659.5,463.5C 662.208,465.353 665.208,466.353 668.5,466.5C 669.461,463.574 670.127,460.574 670.5,457.5C 679.591,436.738 687.424,415.404 694,393.5C 694.374,392.584 694.874,391.75 695.5,391C 697.058,390.79 698.391,390.29 699.5,389.5C 712.258,386.81 724.925,383.81 737.5,380.5 Z"/></g>
<g><path style="opacity:1" fill="#415560" d="M 879.5,463.5 C 869.7,435.53 860.7,407.197 852.5,378.5C 850.057,373.388 848.557,368.055 848,362.5C 860.199,395.629 870.699,429.296 879.5,463.5 Z"/></g>
<g><path style="opacity:1" fill="#41545f" d="M 699.5,389.5 C 698.391,390.29 697.058,390.79 695.5,391C 694.874,391.75 694.374,392.584 694,393.5C 687.424,415.404 679.591,436.738 670.5,457.5C 681.092,427.483 690.926,397.149 700,366.5C 700.763,363.937 701.263,363.937 701.5,366.5C 699.022,374.087 697.189,381.753 696,389.5C 702.044,385.124 707.044,379.79 711,373.5C 711.167,373.833 711.333,374.167 711.5,374.5C 708.935,380.723 704.935,385.723 699.5,389.5 Z"/></g>
<g><path style="opacity:1" fill="#465a64" d="M 623.5,448.5 C 635.333,453.889 647.333,458.889 659.5,463.5C 656.509,471.486 653.509,479.486 650.5,487.5C 626.766,478.7 603.1,469.7 579.5,460.5C 579.5,460.167 579.5,459.833 579.5,459.5C 587.428,458.07 595.428,457.403 603.5,457.5C 603.5,455.167 603.5,452.833 603.5,450.5C 604.461,452.265 604.795,454.265 604.5,456.5C 610.176,456.666 615.843,456.499 621.5,456C 623.113,453.772 623.78,451.272 623.5,448.5 Z"/></g>
<g><path style="opacity:1" fill="#4d64a2" d="M 1007.5,449.5 C 1008.04,449.56 1008.38,449.893 1008.5,450.5C 1005.47,457.681 1000.13,462.014 992.5,463.5C 989.527,461.194 986.86,458.527 984.5,455.5C 992.141,453.51 999.808,451.51 1007.5,449.5 Z"/></g>
<g><path style="opacity:0.996" fill="#b5bdc1" d="M 579.5,460.5 C 603.1,469.7 626.766,478.7 650.5,487.5C 649.766,488.708 649.433,490.041 649.5,491.5C 649.582,493.252 648.749,494.252 647,494.5C 622.785,484.638 598.952,474.138 575.5,463C 576.032,460.98 577.365,460.147 579.5,460.5 Z"/></g>
<g><path style="opacity:1" fill="#445963" d="M 917.5,461.5 C 917.7,464.386 918.7,466.886 920.5,469C 927.754,470.709 935.088,471.876 942.5,472.5C 944.214,473.738 946.214,474.405 948.5,474.5C 950.701,475.566 953.035,476.233 955.5,476.5C 955.611,477.117 955.944,477.617 956.5,478C 934.145,483.517 911.812,489.017 889.5,494.5C 887.169,485.195 884.836,475.862 882.5,466.5C 894.109,464.445 905.776,462.778 917.5,461.5 Z"/></g>
<g><path style="opacity:1" fill="#b0b9bd" d="M 641.5,461.5 C 643.167,461.5 644.833,461.5 646.5,461.5C 646.66,463.199 646.494,464.866 646,466.5C 644.667,467.833 643.333,467.833 642,466.5C 641.506,464.866 641.34,463.199 641.5,461.5 Z"/></g>
<g><path style="opacity:1" fill="#aeb7bb" d="M 895.5,471.5 C 897.167,471.5 898.833,471.5 900.5,471.5C 900.985,476.159 899.152,477.492 895,475.5C 894.421,474.072 894.588,472.738 895.5,471.5 Z"/></g>
<g><path style="opacity:1" fill="#b3bbbf" d="M 955.5,476.5 C 957.371,476.859 958.871,477.859 960,479.5C 960.432,480.6 959.932,481.267 958.5,481.5C 938.944,486.954 919.61,492.954 900.5,499.5C 900.565,499.062 900.399,498.728 900,498.5C 897.165,499.42 894.332,500.42 891.5,501.5C 890.365,499.293 889.699,496.96 889.5,494.5C 911.812,489.017 934.145,483.517 956.5,478C 955.944,477.617 955.611,477.117 955.5,476.5 Z"/></g>
<g><path style="opacity:1" fill="#adc1f0" d="M 753.5,507.5 C 753.784,505.585 753.451,503.919 752.5,502.5C 752.687,500.436 753.187,498.436 754,496.5C 754.81,500.358 754.643,504.024 753.5,507.5 Z"/></g>
<g><path style="opacity:1" fill="#e6ebf7" d="M 824.5,496.5 C 824.5,511.5 824.5,526.5 824.5,541.5C 823.833,545.167 823.167,548.833 822.5,552.5C 822.5,539.833 822.5,527.167 822.5,514.5C 823.167,508.5 823.833,502.5 824.5,496.5 Z"/></g>
<g><path style="opacity:1" fill="#b2c5f1" d="M 824.5,496.5 C 823.833,502.5 823.167,508.5 822.5,514.5C 822.17,508.132 822.504,501.798 823.5,495.5C 824.107,495.624 824.44,495.957 824.5,496.5 Z"/></g>
<g><path style="opacity:1" fill="#e4e9f7" d="M 802.5,539.5 C 801.523,536.713 801.19,533.713 801.5,530.5C 801.547,520.365 802.713,510.365 805,500.5C 805.167,501.833 805.333,503.167 805.5,504.5C 804.416,516.166 803.416,527.833 802.5,539.5 Z"/></g>
<g><path style="opacity:1" fill="#d0dbf5" d="M 722.5,519.5 C 722.828,530.014 722.494,540.347 721.5,550.5C 720.522,533.844 720.355,517.177 721,500.5C 721.333,499.5 721.667,498.5 722,497.5C 722.5,504.826 722.666,512.159 722.5,519.5 Z"/></g>
<g><path style="opacity:1" fill="#b3c6f1" d="M 767.5,504.5 C 766.505,516.655 766.171,528.989 766.5,541.5C 765.173,525.995 765.173,510.328 766.5,494.5C 767.487,497.768 767.82,501.102 767.5,504.5 Z"/></g>
<g><path style="opacity:1" fill="#d6dff5" d="M 833.5,500.5 C 835.156,520.2 837.156,540.033 839.5,560C 839.167,561.167 838.833,562.333 838.5,563.5C 834.463,542.72 832.796,521.72 833.5,500.5 Z"/></g>
<g><path style="opacity:1" fill="#e0e6f6" d="M 739.5,495.5 C 740.032,518.403 738.865,541.403 736,564.5C 735.698,541.421 736.864,518.421 739.5,495.5 Z"/></g>
<g><path style="opacity:1" fill="#c3d1f3" d="M 824.5,541.5 C 824.831,549.86 824.498,558.193 823.5,566.5C 822.507,561.88 822.173,557.214 822.5,552.5C 823.167,548.833 823.833,545.167 824.5,541.5 Z"/></g>
<g><path style="opacity:1" fill="#cfd9f4" d="M 801.5,530.5 C 801.19,533.713 801.523,536.713 802.5,539.5C 802.929,550.245 802.429,560.912 801,571.5C 800.173,557.66 800.339,543.994 801.5,530.5 Z"/></g>
<g><path style="opacity:1" fill="#dce4f6" d="M 789.5,495.5 C 790.147,496.274 790.48,497.274 790.5,498.5C 786.993,521.895 783.159,545.229 779,568.5C 781.522,544.051 785.022,519.718 789.5,495.5 Z"/></g>
<g><path style="opacity:1" fill="#d1dbf5" d="M 767.5,504.5 C 768.516,526.157 768.682,547.824 768,569.5C 766.555,560.274 766.055,550.94 766.5,541.5C 766.171,528.989 766.505,516.655 767.5,504.5 Z"/></g>
<g><path style="opacity:1" fill="#bcccf2" d="M 722.5,519.5 C 723.661,533.994 723.828,548.661 723,563.5C 721.569,559.365 721.069,555.032 721.5,550.5C 722.494,540.347 722.828,530.014 722.5,519.5 Z"/></g>
<g><path style="opacity:1" fill="#d6dff5" d="M 752.5,502.5 C 753.451,503.919 753.784,505.585 753.5,507.5C 752.5,524.173 751.333,540.84 750,557.5C 749.82,560.956 749.153,564.289 748,567.5C 748.708,545.793 750.208,524.126 752.5,502.5 Z"/></g>
<g><path style="opacity:1" fill="#4460a1" d="M 811.5,651.5 C 790.038,668.559 765.705,679.725 738.5,685C 734.848,685.499 731.182,685.665 727.5,685.5C 727.184,682.022 727.684,678.688 729,675.5C 734.678,668.213 742.178,664.88 751.5,665.5C 762.438,667.905 773.438,668.072 784.5,666C 797.132,660.036 807.299,651.203 815,639.5C 814.901,643.372 813.401,646.705 810.5,649.5C 811.025,650.192 811.692,650.692 812.5,651C 812.272,651.399 811.938,651.565 811.5,651.5 Z"/></g>
<g><path style="opacity:1" fill="#2d3b4a" d="M 838.5,591.5 C 839.086,621.192 828.419,646.359 806.5,667C 801.678,670.911 796.678,674.578 791.5,678C 789.598,679.301 787.598,679.968 785.5,680C 818.686,659.942 836.353,630.442 838.5,591.5 Z"/></g>
<g><path style="opacity:1" fill="#25313e" d="M 811.5,651.5 C 785.867,674.996 755.534,686.829 720.5,687C 723.036,686.814 725.369,686.314 727.5,685.5C 731.182,685.665 734.848,685.499 738.5,685C 765.705,679.725 790.038,668.559 811.5,651.5 Z"/></g>
<g><path style="opacity:0.996" fill="#eaeaea" d="M 654.5,692.5 C 654.659,708.992 654.826,725.659 655,742.5C 659.61,745.887 664.443,748.887 669.5,751.5C 686.053,949.148 702.387,1146.81 718.5,1344.5C 656.597,1345.25 595.597,1338.09 535.5,1323C 494.321,1312.27 453.321,1300.94 412.5,1289C 350.39,1265.86 296.557,1230.36 251,1182.5C 229.757,1160.66 211.423,1136.66 196,1110.5C 168.562,1056.51 159.562,999.508 169,939.5C 178.424,879.807 205.258,829.64 249.5,789C 299.071,745.885 356.405,718.218 421.5,706C 448.937,700.779 476.604,697.445 504.5,696C 547.167,695.667 589.833,695.333 632.5,695C 640.049,694.776 647.383,693.943 654.5,692.5 Z"/></g>
<g><path style="opacity:1" fill="#3a4f73" d="M 846.5,718.5 C 846.5,718.167 846.5,717.833 846.5,717.5C 854.62,716.514 862.62,717.347 870.5,720C 862.582,718.983 854.582,718.483 846.5,718.5 Z"/></g>
<g><path style="opacity:1" fill="#24303c" d="M 846.5,717.5 C 846.5,717.833 846.5,718.167 846.5,718.5C 838.331,719.042 830.331,720.542 822.5,723C 807.303,728.952 792.303,735.285 777.5,742C 750.031,752.263 722.031,754.097 693.5,747.5C 694.097,746.861 694.93,746.528 696,746.5C 722.658,751.759 748.825,749.926 774.5,741C 791.166,733.823 807.833,726.989 824.5,720.5C 831.67,718.417 839.003,717.417 846.5,717.5 Z"/></g>
<g><path style="opacity:1" fill="#445fa0" d="M 824.5,720.5 C 807.833,726.989 791.166,733.823 774.5,741C 748.825,749.926 722.658,751.759 696,746.5C 694.93,746.528 694.097,746.861 693.5,747.5C 688.687,746.507 684.02,745.007 679.5,743C 684.102,743.813 688.769,744.646 693.5,745.5C 694.488,740.406 697.655,738.073 703,738.5C 735.707,744.233 767.541,741.066 798.5,729C 806.479,724.063 815.146,721.229 824.5,720.5 Z"/></g>
<g><path style="opacity:0.998" fill="#263238" d="M 898.5,745.5 C 898.987,746.473 899.487,747.473 900,748.5C 928.317,928.729 957.15,1108.73 986.5,1288.5C 993.46,1334.09 1000.79,1379.59 1008.5,1425C 1000.51,1425.5 992.507,1425.67 984.5,1425.5C 963.167,1425.5 941.833,1425.5 920.5,1425.5C 917.223,1425.78 914.057,1425.45 911,1424.5C 904.178,1390.55 897.678,1356.55 891.5,1322.5C 858.913,1156.82 826.079,991.157 793,825.5C 792.833,827.333 792.667,829.167 792.5,831C 795.306,868.475 797.639,905.975 799.5,943.5C 799.053,957.089 800.053,970.423 802.5,983.5C 808.665,1078.47 814.498,1173.47 820,1268.5C 821.591,1291.34 823.425,1314.01 825.5,1336.5C 827.432,1367.82 829.099,1399.15 830.5,1430.5C 825.195,1429.81 819.862,1429.47 814.5,1429.5C 809.025,1428.51 803.358,1428.18 797.5,1428.5C 795.052,1427.53 792.385,1427.19 789.5,1427.5C 776.499,1427.2 763.499,1426.87 750.5,1426.5C 741.865,1426.88 733.365,1426.22 725,1424.5C 722.734,1397.56 720.567,1370.89 718.5,1344.5C 702.387,1146.81 686.053,949.148 669.5,751.5C 712.659,768.827 756.326,769.994 800.5,755C 813.619,747.938 827.286,742.272 841.5,738C 861.038,736.65 880.038,739.15 898.5,745.5 Z"/></g>
<g><path style="opacity:0.997" fill="#e9e9e9" d="M 891.5,1322.5 C 869.658,1328.03 847.658,1332.69 825.5,1336.5C 823.425,1314.01 821.591,1291.34 820,1268.5C 814.498,1173.47 808.665,1078.47 802.5,983.5C 801.746,969.999 800.746,956.665 799.5,943.5C 797.639,905.975 795.306,868.475 792.5,831C 792.667,829.167 792.833,827.333 793,825.5C 826.079,991.157 858.913,1156.82 891.5,1322.5 Z"/></g>
<g><path style="opacity:1" fill="#444e53" d="M 799.5,943.5 C 800.746,956.665 801.746,969.999 802.5,983.5C 800.053,970.423 799.053,957.089 799.5,943.5 Z"/></g>
<g><path style="opacity:1" fill="#e9eaea" d="M 920.5,1425.5 C 941.833,1425.5 963.167,1425.5 984.5,1425.5C 984.325,1427.62 984.659,1429.62 985.5,1431.5C 980.048,1431.27 976.048,1433.61 973.5,1438.5C 973.833,1438.83 974.167,1439.17 974.5,1439.5C 977.619,1435.61 981.619,1433.28 986.5,1432.5C 989.797,1434.6 993.463,1435.93 997.5,1436.5C 992.981,1438.84 990.814,1442.5 991,1447.5C 992.948,1443.39 995.781,1440.05 999.5,1437.5C 1003.01,1439.34 1006.68,1441.01 1010.5,1442.5C 1006.83,1445.29 1005.66,1448.96 1007,1453.5C 1008.09,1449.65 1009.92,1446.32 1012.5,1443.5C 1025.26,1448.04 1036.93,1454.38 1047.5,1462.5C 1046.55,1463.15 1045.38,1463.49 1044,1463.5C 1003.85,1462.42 963.682,1461.75 923.5,1461.5C 923.843,1463.48 923.176,1464.82 921.5,1465.5C 920.723,1452.18 920.389,1438.85 920.5,1425.5 Z"/></g>
<g><path style="opacity:1" fill="#e9e9ea" d="M 750.5,1426.5 C 763.499,1426.87 776.499,1427.2 789.5,1427.5C 789.112,1429.68 788.112,1431.52 786.5,1433C 786.945,1436.79 788.945,1438.12 792.5,1437C 795.318,1434.1 794.984,1431.6 791.5,1429.5C 793.396,1428.53 795.396,1428.2 797.5,1428.5C 803.358,1428.18 809.025,1428.51 814.5,1429.5C 814.5,1442.83 814.5,1456.17 814.5,1469.5C 812.631,1467.36 811.964,1464.7 812.5,1461.5C 771.023,1463.76 729.69,1465.1 688.5,1465.5C 699.317,1457.58 710.984,1450.92 723.5,1445.5C 725.683,1448.53 727.35,1451.87 728.5,1455.5C 729.631,1453.93 729.798,1452.26 729,1450.5C 727.668,1448.34 726.168,1446.34 724.5,1444.5C 728.689,1443.78 732.355,1442.11 735.5,1439.5C 739.17,1441.67 742.003,1444.67 744,1448.5C 744.667,1447.17 744.667,1445.83 744,1444.5C 741.96,1442.63 740.127,1440.63 738.5,1438.5C 742.383,1437.54 746.05,1436.21 749.5,1434.5C 753.994,1435.67 757.827,1438 761,1441.5C 761.269,1438.72 760.102,1436.55 757.5,1435C 754.996,1434.3 752.663,1433.47 750.5,1432.5C 750.758,1430.81 750.758,1428.81 750.5,1426.5 Z"/></g>
<g><path style="opacity:1" fill="#bac9ec" d="M 789.5,1427.5 C 792.385,1427.19 795.052,1427.53 797.5,1428.5C 795.396,1428.2 793.396,1428.53 791.5,1429.5C 794.984,1431.6 795.318,1434.1 792.5,1437C 788.945,1438.12 786.945,1436.79 786.5,1433C 788.112,1431.52 789.112,1429.68 789.5,1427.5 Z"/></g>
<g><path style="opacity:1" fill="#c0d0f5" d="M 943.5,1428.5 C 948.668,1429.34 949.668,1431.84 946.5,1436C 939.951,1435.86 938.951,1433.36 943.5,1428.5 Z"/></g>
<g><path style="opacity:1" fill="#49535b" d="M 985.5,1431.5 C 986.167,1431.5 986.5,1431.83 986.5,1432.5C 981.619,1433.28 977.619,1435.61 974.5,1439.5C 974.167,1439.17 973.833,1438.83 973.5,1438.5C 976.048,1433.61 980.048,1431.27 985.5,1431.5 Z"/></g>
<g><path style="opacity:1" fill="#49545b" d="M 750.5,1432.5 C 752.663,1433.47 754.996,1434.3 757.5,1435C 760.102,1436.55 761.269,1438.72 761,1441.5C 757.827,1438 753.994,1435.67 749.5,1434.5C 749.328,1433.51 749.662,1432.84 750.5,1432.5 Z"/></g>
<g><path style="opacity:1" fill="#48535a" d="M 997.5,1436.5 C 998.492,1436.33 999.158,1436.66 999.5,1437.5C 995.781,1440.05 992.948,1443.39 991,1447.5C 990.814,1442.5 992.981,1438.84 997.5,1436.5 Z"/></g>
<g><path style="opacity:1" fill="#475157" d="M 735.5,1439.5 C 736.209,1438.6 737.209,1438.26 738.5,1438.5C 740.127,1440.63 741.96,1442.63 744,1444.5C 744.667,1445.83 744.667,1447.17 744,1448.5C 742.003,1444.67 739.17,1441.67 735.5,1439.5 Z"/></g>
<g><path style="opacity:1" fill="#444e54" d="M 1012.5,1443.5 C 1009.92,1446.32 1008.09,1449.65 1007,1453.5C 1005.66,1448.96 1006.83,1445.29 1010.5,1442.5C 1011.62,1441.24 1012.29,1441.58 1012.5,1443.5 Z"/></g>
<g><path style="opacity:1" fill="#4a545c" d="M 724.5,1444.5 C 726.168,1446.34 727.668,1448.34 729,1450.5C 729.798,1452.26 729.631,1453.93 728.5,1455.5C 727.35,1451.87 725.683,1448.53 723.5,1445.5C 723.5,1444.83 723.833,1444.5 724.5,1444.5 Z"/></g>
<g><path style="opacity:0.943" fill="#bfcff4" d="M 814.5,1469.5 C 814.5,1470.5 814.5,1471.5 814.5,1472.5C 770.833,1472.5 727.167,1472.5 683.5,1472.5C 683.969,1469.36 685.636,1467.02 688.5,1465.5C 729.69,1465.1 771.023,1463.76 812.5,1461.5C 811.964,1464.7 812.631,1467.36 814.5,1469.5 Z"/></g>
<g><path style="opacity:0.962" fill="#c1d1f5" d="M 1047.5,1462.5 C 1051.09,1463.43 1052.76,1465.76 1052.5,1469.5C 1009.33,1470.15 966.331,1471.15 923.5,1472.5C 923.167,1472.5 922.833,1472.5 922.5,1472.5C 921.631,1470.28 921.298,1467.95 921.5,1465.5C 923.176,1464.82 923.843,1463.48 923.5,1461.5C 963.682,1461.75 1003.85,1462.42 1044,1463.5C 1045.38,1463.49 1046.55,1463.15 1047.5,1462.5 Z"/></g>
</svg>
