<?xml version="1.0" encoding="UTF-8"?>
<!DOCTYPE svg PUBLIC "-//W3C//DTD SVG 1.1//EN" "http://www.w3.org/Graphics/SVG/1.1/DTD/svg11.dtd">
<svg xmlns="http://www.w3.org/2000/svg" version="1.1" width="1624px" height="1473px" style="shape-rendering:geometricPrecision; text-rendering:geometricPrecision; image-rendering:optimizeQuality; fill-rule:evenodd; clip-rule:evenodd" xmlns:xlink="http://www.w3.org/1999/xlink">
<g><path style="opacity:0.985" fill="#263238" d="M 753.5,101.5 C 754.424,95.1839 752.424,90.0172 747.5,86C 746.552,85.5172 745.552,85.3505 744.5,85.5C 744.5,84.1667 744.5,82.8333 744.5,81.5C 747.617,81.6423 750.117,82.9756 752,85.5C 752.76,81.7745 752.593,78.1078 751.5,74.5C 737.9,76.5777 726.4,72.5777 717,62.5C 716.215,64.286 715.049,65.786 713.5,67C 700.533,71.1649 687.366,71.6649 674,68.5C 673.167,68.8333 672.333,69.1667 671.5,69.5C 673.984,84.2823 671.151,97.949 663,110.5C 660.871,101.053 655.704,93.8859 647.5,89C 636.182,86.8144 629.515,91.3144 627.5,102.5C 624.57,98.3012 621.903,93.9678 619.5,89.5C 615.436,74.3373 617.27,60.004 625,46.5C 628.06,43.3865 631.56,40.8865 635.5,39C 631.023,30.9789 629.356,22.4789 630.5,13.5C 646.255,12.1334 661.921,12.3001 677.5,14C 674.777,10.9432 672.444,7.60988 670.5,4C 691.342,1.9692 711.176,5.4692 730,14.5C 732.722,11.5564 735.889,9.22309 739.5,7.5C 751.334,13.8326 759.834,23.166 765,35.5C 768.07,46.24 766.57,56.24 760.5,65.5C 762.422,78.4009 760.089,90.4009 753.5,101.5 Z"/></g>
<g><path style="opacity:1" fill="#eaeaea" d="M 619.5,89.5 C 621.903,93.9678 624.57,98.3012 627.5,102.5C 628.489,109.812 631.656,116.145 637,121.5C 637.483,122.448 637.649,123.448 637.5,124.5C 637.988,135.505 642.988,143.505 652.5,148.5C 653.496,148.414 654.329,148.748 655,149.5C 656.562,151.957 657.562,154.624 658,157.5C 659.042,167.628 658.375,177.628 656,187.5C 651.217,198.81 642.717,205.143 630.5,206.5C 608.974,206.481 587.974,209.648 567.5,216C 558.644,224.205 552.144,234.039 548,245.5C 537.051,274.63 529.551,304.63 525.5,335.5C 525.39,337.374 526.056,338.874 527.5,340C 531.999,341.039 536.332,342.206 540.5,343.5C 539.085,355.155 537.751,366.822 536.5,378.5C 528.176,377.115 520.176,374.615 512.5,371C 492.391,361.446 472.725,351.113 453.5,340C 443.743,328.569 437.743,315.403 435.5,300.5C 436.497,300.53 437.164,300.03 437.5,299C 438.09,296.804 438.757,294.638 439.5,292.5C 439.043,291.702 438.376,291.369 437.5,291.5C 440.056,285.663 440.056,279.83 437.5,274C 443.969,266.668 443.969,259.501 437.5,252.5C 438.458,243.237 435.124,235.737 427.5,230C 422.526,226.679 417.193,224.179 411.5,222.5C 411.662,224.527 411.495,226.527 411,228.5C 407.355,233.307 404.855,238.641 403.5,244.5C 393.242,247.338 389.409,254.004 392,264.5C 392.695,266.722 393.528,268.889 394.5,271C 390.664,277.825 390.664,284.659 394.5,291.5C 393.448,291.351 392.448,291.517 391.5,292C 393.467,297.4 395.133,302.9 396.5,308.5C 393.788,307.013 391.621,307.679 390,310.5C 385.774,331.029 392.607,346.362 410.5,356.5C 412.316,361.725 414.149,367.058 416,372.5C 417.212,367.62 418.712,362.953 420.5,358.5C 422.474,360.287 424.974,361.287 428,361.5C 429.465,360.67 430.965,360.504 432.5,361C 458.473,385.292 487.473,405.292 519.5,421C 531.082,426.085 543.082,427.585 555.5,425.5C 556.498,459.996 556.832,494.663 556.5,529.5C 534.108,646.516 513.442,763.849 494.5,881.5C 388.824,829.993 307.657,752.66 251,649.5C 193.621,534.773 177.621,414.44 203,288.5C 215.359,227.141 238.692,170.475 273,118.5C 293.728,88.103 319.894,63.603 351.5,45C 367.133,36.5912 383.8,31.5912 401.5,30C 482.234,21.1786 554.901,41.0119 619.5,89.5 Z"/></g>
<g><path style="opacity:0.997" fill="#fdc2bc" d="M 753.5,101.5 C 751.868,119.896 746.701,137.229 738,153.5C 732.117,161.894 724.617,168.227 715.5,172.5C 711.298,173.132 707.298,174.132 703.5,175.5C 697.158,175.666 690.825,175.5 684.5,175C 681.845,173.885 679.179,173.218 676.5,173C 684.113,180.929 693.447,184.429 704.5,183.5C 705.477,193.438 708.811,202.438 714.5,210.5C 691.444,230.612 665.11,236.778 635.5,229C 630.408,225.983 628.074,221.483 628.5,215.5C 628.346,212.263 629.013,209.263 630.5,206.5C 642.717,205.143 651.217,198.81 656,187.5C 658.375,177.628 659.042,167.628 658,157.5C 657.562,154.624 656.562,151.957 655,149.5C 654.329,148.748 653.496,148.414 652.5,148.5C 650.503,142.519 648.503,136.519 646.5,130.5C 643.299,128.738 640.299,126.738 637.5,124.5C 637.649,123.448 637.483,122.448 637,121.5C 631.656,116.145 628.489,109.812 627.5,102.5C 629.515,91.3144 636.182,86.8144 647.5,89C 655.704,93.8859 660.871,101.053 663,110.5C 671.151,97.949 673.984,84.2823 671.5,69.5C 672.333,69.1667 673.167,68.8333 674,68.5C 687.366,71.6649 700.533,71.1649 713.5,67C 715.049,65.786 716.215,64.286 717,62.5C 726.4,72.5777 737.9,76.5777 751.5,74.5C 752.593,78.1078 752.76,81.7745 752,85.5C 750.117,82.9756 747.617,81.6423 744.5,81.5C 744.5,82.8333 744.5,84.1667 744.5,85.5C 745.552,85.3505 746.552,85.5172 747.5,86C 752.424,90.0172 754.424,95.1839 753.5,101.5 Z"/></g>
<g><path style="opacity:1" fill="#343b40" d="M 703.5,76.5 C 706.518,76.3354 709.518,76.502 712.5,77C 713.337,78.0113 713.67,79.1779 713.5,80.5C 707.555,79.6202 702.221,80.9535 697.5,84.5C 696.386,83.277 696.219,81.9437 697,80.5C 699.314,79.2668 701.481,77.9334 703.5,76.5 Z"/></g>
<g><path style="opacity:1" fill="#2b353b" d="M 706.5,93.5 C 710.24,92.7415 711.907,94.2415 711.5,98C 711.537,102.48 709.537,103.98 705.5,102.5C 704.137,99.3125 704.471,96.3125 706.5,93.5 Z"/></g>
<g><path style="opacity:1" fill="#30383e" d="M 739.5,100.5 C 742.93,99.7553 744.597,101.089 744.5,104.5C 744.486,109.365 742.32,111.365 738,110.5C 737.153,106.928 737.653,103.594 739.5,100.5 Z"/></g>
<g><path style="opacity:1" fill="#ed8680" d="M 725.5,104.5 C 726.649,104.791 727.316,105.624 727.5,107C 729.064,114.026 731.231,120.859 734,127.5C 734.72,129.112 734.554,130.612 733.5,132C 728.561,133.184 724.228,132.184 720.5,129C 722.727,120.93 724.393,112.763 725.5,104.5 Z"/></g>
<g><path style="opacity:1" fill="#3b4045" d="M 688.5,122.5 C 690.916,125.1 693.249,127.933 695.5,131C 699.539,134.019 703.872,136.519 708.5,138.5C 698.179,137.978 691.512,132.645 688.5,122.5 Z"/></g>
<g><path style="opacity:1" fill="#303a40" d="M 637.5,124.5 C 640.299,126.738 643.299,128.738 646.5,130.5C 648.503,136.519 650.503,142.519 652.5,148.5C 642.988,143.505 637.988,135.505 637.5,124.5 Z"/></g>
<g><path style="opacity:0.97" fill="#edf1fc" d="M 715.5,172.5 C 733.192,187.862 750.859,203.196 768.5,218.5C 750.698,214.533 732.698,211.866 714.5,210.5C 708.811,202.438 705.477,193.438 704.5,183.5C 703.612,180.946 703.279,178.279 703.5,175.5C 707.298,174.132 711.298,173.132 715.5,172.5 Z"/></g>
<g><path style="opacity:1" fill="#cf9e99" d="M 703.5,175.5 C 703.279,178.279 703.612,180.946 704.5,183.5C 693.447,184.429 684.113,180.929 676.5,173C 679.179,173.218 681.845,173.885 684.5,175C 690.825,175.5 697.158,175.666 703.5,175.5 Z"/></g>
<g><path style="opacity:1" fill="#618ae6" d="M 630.5,206.5 C 629.013,209.263 628.346,212.263 628.5,215.5C 628.074,221.483 630.408,225.983 635.5,229C 665.11,236.778 691.444,230.612 714.5,210.5C 732.698,211.866 750.698,214.533 768.5,218.5C 785.745,219.619 798.078,227.952 805.5,243.5C 818.13,268.89 826.63,295.557 831,323.5C 829.624,324.705 828.458,326.038 827.5,327.5C 813.18,339.155 799.18,351.155 785.5,363.5C 783.284,364.203 781.451,365.536 780,367.5C 772.915,357.931 766.082,348.264 759.5,338.5C 750.184,323.212 741.351,307.545 733,291.5C 735.553,315.991 743.386,338.658 756.5,359.5C 753.046,419.446 751.713,479.446 752.5,539.5C 687.181,535.945 621.848,532.612 556.5,529.5C 556.832,494.663 556.498,459.996 555.5,425.5C 556.3,399.508 556.633,373.508 556.5,347.5C 551.067,346.475 545.733,345.142 540.5,343.5C 536.332,342.206 531.999,341.039 527.5,340C 526.056,338.874 525.39,337.374 525.5,335.5C 529.551,304.63 537.051,274.63 548,245.5C 552.144,234.039 558.644,224.205 567.5,216C 587.974,209.648 608.974,206.481 630.5,206.5 Z"/></g>
<g><path style="opacity:1" fill="#afc5f2" d="M 437.5,291.5 C 423.167,291.5 408.833,291.5 394.5,291.5C 390.664,284.659 390.664,277.825 394.5,271C 393.528,268.889 392.695,266.722 392,264.5C 389.409,254.004 393.242,247.338 403.5,244.5C 404.855,238.641 407.355,233.307 411,228.5C 411.495,226.527 411.662,224.527 411.5,222.5C 417.193,224.179 422.526,226.679 427.5,230C 435.124,235.737 438.458,243.237 437.5,252.5C 443.969,259.501 443.969,266.668 437.5,274C 440.056,279.83 440.056,285.663 437.5,291.5 Z"/></g>
<g><path style="opacity:1" fill="#eaeaea" d="M 805.5,243.5 C 884.054,280.757 959.054,323.591 1030.5,372C 1086.94,410.532 1137.77,455.698 1183,507.5C 1217.11,547.692 1242.44,593.025 1259,643.5C 1283.09,734.722 1265.43,816.722 1206,889.5C 1188.74,909.424 1169.58,927.258 1148.5,943C 1142.44,947.358 1136.11,951.192 1129.5,954.5C 1128.66,954.158 1128.33,953.492 1128.5,952.5C 1126.48,935.722 1123.81,919.055 1120.5,902.5C 1138.99,897.593 1156.66,890.427 1173.5,881C 1182.53,874.637 1189.37,866.471 1194,856.5C 1195.96,848.153 1195.96,839.82 1194,831.5C 1182.56,809.583 1169.39,788.917 1154.5,769.5C 1156.78,767.277 1157.61,764.611 1157,761.5C 1147.94,742.196 1134.78,726.363 1117.5,714C 1111.92,710.542 1105.92,708.209 1099.5,707C 1083.2,705.651 1066.87,705.151 1050.5,705.5C 1044.13,698.427 1040.13,690.094 1038.5,680.5C 1040.53,676.787 1043.53,673.954 1047.5,672C 1050.3,668.855 1052.97,665.688 1055.5,662.5C 1068.13,661.011 1079.8,656.844 1090.5,650C 1105.58,639.363 1109.75,625.529 1103,608.5C 1101.5,607 1100,605.5 1098.5,604C 1101.47,601.9 1103.3,599.066 1104,595.5C 1105.02,585.236 1103.02,575.569 1098,566.5C 1088.28,551.722 1081.28,535.722 1077,518.5C 1074.7,525.702 1073.03,533.035 1072,540.5C 1068.45,535.287 1063.95,531.12 1058.5,528C 1044.42,520.753 1030.09,514.087 1015.5,508C 1012.69,506.023 1010.02,503.856 1007.5,501.5C 1006.81,502.025 1006.31,502.692 1006,503.5C 1005.45,507.16 1004.95,510.827 1004.5,514.5C 1005.52,520.154 1006.02,525.821 1006,531.5C 1001.43,526.687 997.097,521.687 993,516.5C 984.71,528.789 982.544,542.122 986.5,556.5C 973.145,567.551 966.479,581.885 966.5,599.5C 964.357,608.075 962.524,616.742 961,625.5C 958.373,643.956 963.873,659.456 977.5,672C 982.071,675.421 986.737,678.588 991.5,681.5C 991.5,686.5 991.5,691.5 991.5,696.5C 989.901,702.709 986.568,707.709 981.5,711.5C 957.163,707.499 932.83,707.666 908.5,712C 906.497,712.335 904.83,713.168 903.5,714.5C 892.4,710.118 881.4,705.451 870.5,700.5C 860.758,694.591 853.258,686.591 848,676.5C 840.033,662.232 832.866,647.566 826.5,632.5C 828.705,626.551 830.705,620.551 832.5,614.5C 831.832,609.153 831.166,603.82 830.5,598.5C 830.091,594.152 829.924,589.819 830,585.5C 833.722,577.002 836.222,568.169 837.5,559C 837.215,554.979 836.215,551.146 834.5,547.5C 846.088,508.474 852.754,468.64 854.5,428C 854.775,413.146 852.608,398.646 848,384.5C 842.049,365.145 835.216,346.145 827.5,327.5C 828.458,326.038 829.624,324.705 831,323.5C 826.63,295.557 818.13,268.89 805.5,243.5 Z"/></g>
<g><path style="opacity:1" fill="#638be6" d="M 394.5,291.5 C 408.833,291.5 423.167,291.5 437.5,291.5C 438.376,291.369 439.043,291.702 439.5,292.5C 438.757,294.638 438.09,296.804 437.5,299C 437.164,300.03 436.497,300.53 435.5,300.5C 431.98,301.183 429.48,303.183 428,306.5C 427.858,314.839 427.858,323.172 428,331.5C 425.559,340.547 423.059,349.547 420.5,358.5C 418.712,362.953 417.212,367.62 416,372.5C 414.149,367.058 412.316,361.725 410.5,356.5C 406.036,340.441 401.369,324.441 396.5,308.5C 395.133,302.9 393.467,297.4 391.5,292C 392.448,291.517 393.448,291.351 394.5,291.5 Z"/></g>
<g><path style="opacity:1" fill="#4f6fba" d="M 759.5,338.5 C 758.854,345.641 757.854,352.641 756.5,359.5C 743.386,338.658 735.553,315.991 733,291.5C 741.351,307.545 750.184,323.212 759.5,338.5 Z"/></g>
<g><path style="opacity:1" fill="#fec2bd" d="M 435.5,300.5 C 437.743,315.403 443.743,328.569 453.5,340C 472.725,351.113 492.391,361.446 512.5,371C 520.176,374.615 528.176,377.115 536.5,378.5C 537.751,366.822 539.085,355.155 540.5,343.5C 545.733,345.142 551.067,346.475 556.5,347.5C 556.633,373.508 556.3,399.508 555.5,425.5C 543.082,427.585 531.082,426.085 519.5,421C 487.473,405.292 458.473,385.292 432.5,361C 430.965,360.504 429.465,360.67 428,361.5C 424.974,361.287 422.474,360.287 420.5,358.5C 423.059,349.547 425.559,340.547 428,331.5C 427.858,323.172 427.858,314.839 428,306.5C 429.48,303.183 431.98,301.183 435.5,300.5 Z"/></g>
<g><path style="opacity:1" fill="#fcc1bd" d="M 396.5,308.5 C 401.369,324.441 406.036,340.441 410.5,356.5C 392.607,346.362 385.774,331.029 390,310.5C 391.621,307.679 393.788,307.013 396.5,308.5 Z"/></g>
<g><path style="opacity:1" fill="#fec2bc" d="M 827.5,327.5 C 835.216,346.145 842.049,365.145 848,384.5C 852.608,398.646 854.775,413.146 854.5,428C 852.754,468.64 846.088,508.474 834.5,547.5C 836.215,551.146 837.215,554.979 837.5,559C 836.222,568.169 833.722,577.002 830,585.5C 829.924,589.819 830.091,594.152 830.5,598.5C 829.691,596.708 829.191,594.708 829,592.5C 827.188,598.1 825.688,603.767 824.5,609.5C 815.163,607.832 805.829,606.165 796.5,604.5C 793.76,602.616 790.594,601.282 787,600.5C 786.982,590.839 787.315,581.173 788,571.5C 793.759,563.652 799.759,555.985 806,548.5C 808.722,513.225 809.722,477.892 809,442.5C 808.75,433.082 807.75,423.749 806,414.5C 800.22,396.959 793.387,379.959 785.5,363.5C 799.18,351.155 813.18,339.155 827.5,327.5 Z"/></g>
<g><path style="opacity:1" fill="#eaeaea" d="M 759.5,338.5 C 766.082,348.264 772.915,357.931 780,367.5C 781.451,365.536 783.284,364.203 785.5,363.5C 793.387,379.959 800.22,396.959 806,414.5C 807.75,423.749 808.75,433.082 809,442.5C 809.722,477.892 808.722,513.225 806,548.5C 799.759,555.985 793.759,563.652 788,571.5C 787.315,581.173 786.982,590.839 787,600.5C 790.594,601.282 793.76,602.616 796.5,604.5C 793.228,616.483 794.061,628.149 799,639.5C 801.58,666.905 809.58,692.571 823,716.5C 831.305,728.474 841.805,737.974 854.5,745C 868.513,753.507 883.18,760.673 898.5,766.5C 897.709,769.417 897.709,772.25 898.5,775C 907.167,779.584 916.001,783.751 925,787.5C 929.236,847.983 937.069,907.983 948.5,967.5C 948.536,977.932 947.869,988.266 946.5,998.5C 885.082,999.194 824.415,992.861 764.5,979.5C 760.847,936.627 758.347,893.627 757,850.5C 754.085,746.854 752.585,643.187 752.5,539.5C 751.713,479.446 753.046,419.446 756.5,359.5C 757.854,352.641 758.854,345.641 759.5,338.5 Z"/></g>
<g><path style="opacity:1" fill="#273339" d="M 1055.5,662.5 C 1058.81,658.504 1063.14,656.004 1068.5,655C 1075.82,650.525 1078.99,644.025 1078,635.5C 1075.69,632.229 1072.53,630.563 1068.5,630.5C 1064.03,631.068 1060.03,632.735 1056.5,635.5C 1045.91,621.978 1041.41,606.645 1043,589.5C 1028.66,580.906 1015.49,570.74 1003.5,559C 997.346,560.758 992.013,564.091 987.5,569C 990.923,568.855 992.923,570.355 993.5,573.5C 989.818,573.335 986.152,573.501 982.5,574C 976.003,581.84 970.67,590.34 966.5,599.5C 966.479,581.885 973.145,567.551 986.5,556.5C 982.544,542.122 984.71,528.789 993,516.5C 997.097,521.687 1001.43,526.687 1006,531.5C 1006.02,525.821 1005.52,520.154 1004.5,514.5C 1004.95,510.827 1005.45,507.16 1006,503.5C 1006.31,502.692 1006.81,502.025 1007.5,501.5C 1010.02,503.856 1012.69,506.023 1015.5,508C 1030.09,514.087 1044.42,520.753 1058.5,528C 1063.95,531.12 1068.45,535.287 1072,540.5C 1073.03,533.035 1074.7,525.702 1077,518.5C 1081.28,535.722 1088.28,551.722 1098,566.5C 1103.02,575.569 1105.02,585.236 1104,595.5C 1103.3,599.066 1101.47,601.9 1098.5,604C 1100,605.5 1101.5,607 1103,608.5C 1109.75,625.529 1105.58,639.363 1090.5,650C 1079.8,656.844 1068.13,661.011 1055.5,662.5 Z"/></g>
<g><path style="opacity:0.996" fill="#263238" d="M 556.5,529.5 C 621.848,532.612 687.181,535.945 752.5,539.5C 752.585,643.187 754.085,746.854 757,850.5C 758.347,893.627 760.847,936.627 764.5,979.5C 772.972,1087.11 780.639,1194.77 787.5,1302.5C 784.518,1303.16 781.352,1303.5 778,1303.5C 757.668,1302.96 737.502,1302.29 717.5,1301.5C 697.418,1185.01 678.418,1068.34 660.5,951.5C 652.193,874.449 644.86,797.449 638.5,720.5C 637.601,691.278 635.434,661.944 632,632.5C 623.45,657.125 618.117,682.459 616,708.5C 614.693,736.262 615.693,763.928 619,791.5C 619.614,796.758 620.781,801.758 622.5,806.5C 613.938,847.313 606.271,888.313 599.5,929.5C 575.463,1051.32 547.796,1172.32 516.5,1292.5C 494.299,1289.62 472.299,1286.28 450.5,1282.5C 461.002,1177.81 471.836,1073.14 483,968.5C 485.937,939.332 489.771,910.332 494.5,881.5C 513.442,763.849 534.108,646.516 556.5,529.5 Z"/></g>
<g><path style="opacity:1" fill="#fd8a7b" d="M 1055.5,662.5 C 1052.97,665.688 1050.3,668.855 1047.5,672C 1043.53,673.954 1040.53,676.787 1038.5,680.5C 1040.13,690.094 1044.13,698.427 1050.5,705.5C 1051.48,706.815 1052.48,708.148 1053.5,709.5C 1033.53,726.496 1011.53,740.496 987.5,751.5C 979.58,746.754 974.08,740.088 971,731.5C 970.053,726.97 970.553,722.636 972.5,718.5C 975.829,716.494 978.829,714.161 981.5,711.5C 986.568,707.709 989.901,702.709 991.5,696.5C 1003.64,695.954 1014.64,692.12 1024.5,685C 1013.24,686.425 1002.24,685.259 991.5,681.5C 986.737,678.588 982.071,675.421 977.5,672C 963.873,659.456 958.373,643.956 961,625.5C 962.524,616.742 964.357,608.075 966.5,599.5C 970.67,590.34 976.003,581.84 982.5,574C 986.152,573.501 989.818,573.335 993.5,573.5C 992.923,570.355 990.923,568.855 987.5,569C 992.013,564.091 997.346,560.758 1003.5,559C 1015.49,570.74 1028.66,580.906 1043,589.5C 1041.41,606.645 1045.91,621.978 1056.5,635.5C 1060.03,632.735 1064.03,631.068 1068.5,630.5C 1072.53,630.563 1075.69,632.229 1078,635.5C 1078.99,644.025 1075.82,650.525 1068.5,655C 1063.14,656.004 1058.81,658.504 1055.5,662.5 Z"/></g>
<g><path style="opacity:1" fill="#32363b" d="M 1020.5,582.5 C 1028.33,584.341 1031.99,589.341 1031.5,597.5C 1030.5,597.5 1029.5,597.5 1028.5,597.5C 1028.28,592.064 1025.78,588.064 1021,585.5C 1020.52,584.552 1020.35,583.552 1020.5,582.5 Z"/></g>
<g><path style="opacity:1" fill="#32373b" d="M 980.5,586.5 C 983.488,586.155 984.821,587.488 984.5,590.5C 984.045,593.633 982.379,595.966 979.5,597.5C 977.495,596.663 976.495,595.163 976.5,593C 977.207,590.413 978.541,588.246 980.5,586.5 Z"/></g>
<g><path style="opacity:1" fill="#fe8b7c" d="M 830.5,598.5 C 831.166,603.82 831.832,609.153 832.5,614.5C 830.705,620.551 828.705,626.551 826.5,632.5C 832.866,647.566 840.033,662.232 848,676.5C 853.258,686.591 860.758,694.591 870.5,700.5C 881.4,705.451 892.4,710.118 903.5,714.5C 901.834,731.832 900.167,749.165 898.5,766.5C 883.18,760.673 868.513,753.507 854.5,745C 841.805,737.974 831.305,728.474 823,716.5C 809.58,692.571 801.58,666.905 799,639.5C 794.061,628.149 793.228,616.483 796.5,604.5C 805.829,606.165 815.163,607.832 824.5,609.5C 825.688,603.767 827.188,598.1 829,592.5C 829.191,594.708 829.691,596.708 830.5,598.5 Z"/></g>
<g><path style="opacity:1" fill="#30363a" d="M 1010.5,596.5 C 1012.17,596.5 1013.83,596.5 1015.5,596.5C 1016.46,601.254 1014.79,604.587 1010.5,606.5C 1008.73,605.73 1007.73,604.397 1007.5,602.5C 1007.98,600.199 1008.98,598.199 1010.5,596.5 Z"/></g>
<g><path style="opacity:1" fill="#ff5853" d="M 987.5,600.5 C 986.3,606.97 983.8,613.303 980,619.5C 977.206,620.846 974.706,620.346 972.5,618C 970.671,616.887 969.837,615.387 970,613.5C 976.299,609.689 982.132,605.355 987.5,600.5 Z"/></g>
<g><path style="opacity:1" fill="#35383c" d="M 986.5,630.5 C 994.177,634.014 1002.01,634.347 1010,631.5C 1010.5,631.833 1011,632.167 1011.5,632.5C 1003.62,636.27 995.624,636.437 987.5,633C 986.748,632.329 986.414,631.496 986.5,630.5 Z"/></g>
<g><path style="opacity:1" fill="#1e282d" d="M 638.5,720.5 C 633.039,749.139 627.706,777.806 622.5,806.5C 620.781,801.758 619.614,796.758 619,791.5C 615.693,763.928 614.693,736.262 616,708.5C 618.117,682.459 623.45,657.125 632,632.5C 635.434,661.944 637.601,691.278 638.5,720.5 Z"/></g>
<g><path style="opacity:1" fill="#cd7164" d="M 991.5,681.5 C 1002.24,685.259 1013.24,686.425 1024.5,685C 1014.64,692.12 1003.64,695.954 991.5,696.5C 991.5,691.5 991.5,686.5 991.5,681.5 Z"/></g>
<g><path style="opacity:1" fill="#263238" d="M 1050.5,705.5 C 1066.87,705.151 1083.2,705.651 1099.5,707C 1105.92,708.209 1111.92,710.542 1117.5,714C 1134.78,726.363 1147.94,742.196 1157,761.5C 1157.61,764.611 1156.78,767.277 1154.5,769.5C 1144.08,783.91 1134.08,798.577 1124.5,813.5C 1123.22,815.062 1121.72,816.396 1120,817.5C 1117.36,816.679 1115.02,815.346 1113,813.5C 1113.42,831.861 1114.59,850.194 1116.5,868.5C 1112.5,870.5 1108.5,872.5 1104.5,874.5C 1104.73,868.768 1105.4,863.101 1106.5,857.5C 1106.04,856.702 1105.38,856.369 1104.5,856.5C 1107.65,850.206 1106.98,844.372 1102.5,839C 1105.36,834.219 1106.2,829.052 1105,823.5C 1104,821.167 1102.33,819.5 1100,818.5C 1099.44,808.88 1094.94,801.713 1086.5,797C 1079.53,793.426 1072.2,791.426 1064.5,791C 1065.94,792.126 1066.61,793.626 1066.5,795.5C 1064.51,802.157 1062.51,808.824 1060.5,815.5C 1054.63,818.082 1051.63,822.582 1051.5,829C 1052.36,834.242 1054.03,839.242 1056.5,844C 1054.47,851.222 1055.8,857.722 1060.5,863.5C 1059.62,863.369 1058.96,863.702 1058.5,864.5C 1061.45,870.068 1064.12,875.734 1066.5,881.5C 1062.27,882.952 1060.27,885.952 1060.5,890.5C 1061.81,896.785 1063.97,902.785 1067,908.5C 1068.17,911 1070,912.833 1072.5,914C 1075.82,914.498 1079.15,914.665 1082.5,914.5C 1086.38,923.262 1090.55,931.929 1095,940.5C 1096.93,931.258 1098.1,921.925 1098.5,912.5C 1105.03,910.899 1110.7,907.733 1115.5,903C 1117.13,902.506 1118.8,902.34 1120.5,902.5C 1123.81,919.055 1126.48,935.722 1128.5,952.5C 1070.49,957.531 1012.49,962.865 954.5,968.5C 952.41,968.427 950.41,968.094 948.5,967.5C 937.069,907.983 929.236,847.983 925,787.5C 916.001,783.751 907.167,779.584 898.5,775C 897.709,772.25 897.709,769.417 898.5,766.5C 900.167,749.165 901.834,731.832 903.5,714.5C 904.83,713.168 906.497,712.335 908.5,712C 932.83,707.666 957.163,707.499 981.5,711.5C 978.829,714.161 975.829,716.494 972.5,718.5C 970.553,722.636 970.053,726.97 971,731.5C 974.08,740.088 979.58,746.754 987.5,751.5C 1011.53,740.496 1033.53,726.496 1053.5,709.5C 1052.48,708.148 1051.48,706.815 1050.5,705.5 Z"/></g>
<g><path style="opacity:0.995" fill="#ecf0fa" d="M 638.5,720.5 C 644.86,797.449 652.193,874.449 660.5,951.5C 640.019,944.562 619.686,937.229 599.5,929.5C 606.271,888.313 613.938,847.313 622.5,806.5C 627.706,777.806 633.039,749.139 638.5,720.5 Z"/></g>
<g><path style="opacity:1" fill="#fe8b7b" d="M 1154.5,769.5 C 1169.39,788.917 1182.56,809.583 1194,831.5C 1195.96,839.82 1195.96,848.153 1194,856.5C 1189.37,866.471 1182.53,874.637 1173.5,881C 1156.66,890.427 1138.99,897.593 1120.5,902.5C 1118.8,902.34 1117.13,902.506 1115.5,903C 1110.7,907.733 1105.03,910.899 1098.5,912.5C 1093.07,913.123 1087.73,913.79 1082.5,914.5C 1079.15,914.665 1075.82,914.498 1072.5,914C 1070,912.833 1068.17,911 1067,908.5C 1063.97,902.785 1061.81,896.785 1060.5,890.5C 1060.27,885.952 1062.27,882.952 1066.5,881.5C 1076.26,876.343 1086.42,875.343 1097,878.5C 1099.78,877.527 1102.28,876.194 1104.5,874.5C 1108.5,872.5 1112.5,870.5 1116.5,868.5C 1128.51,862.493 1139.51,854.993 1149.5,846C 1141.3,834.981 1132.97,824.148 1124.5,813.5C 1134.08,798.577 1144.08,783.91 1154.5,769.5 Z"/></g>
<g><path style="opacity:1" fill="#aec3f1" d="M 1104.5,856.5 C 1089.83,858.835 1075.16,861.168 1060.5,863.5C 1055.8,857.722 1054.47,851.222 1056.5,844C 1054.03,839.242 1052.36,834.242 1051.5,829C 1051.63,822.582 1054.63,818.082 1060.5,815.5C 1062.51,808.824 1064.51,802.157 1066.5,795.5C 1066.61,793.626 1065.94,792.126 1064.5,791C 1072.2,791.426 1079.53,793.426 1086.5,797C 1094.94,801.713 1099.44,808.88 1100,818.5C 1102.33,819.5 1104,821.167 1105,823.5C 1106.2,829.052 1105.36,834.219 1102.5,839C 1106.98,844.372 1107.65,850.206 1104.5,856.5 Z"/></g>
<g><path style="opacity:1" fill="#eef0fa" d="M 1124.5,813.5 C 1132.97,824.148 1141.3,834.981 1149.5,846C 1139.51,854.993 1128.51,862.493 1116.5,868.5C 1114.59,850.194 1113.42,831.861 1113,813.5C 1115.02,815.346 1117.36,816.679 1120,817.5C 1121.72,816.396 1123.22,815.062 1124.5,813.5 Z"/></g>
<g><path style="opacity:1" fill="#6389e5" d="M 1104.5,856.5 C 1105.38,856.369 1106.04,856.702 1106.5,857.5C 1105.4,863.101 1104.73,868.768 1104.5,874.5C 1102.28,876.194 1099.78,877.527 1097,878.5C 1086.42,875.343 1076.26,876.343 1066.5,881.5C 1064.12,875.734 1061.45,870.068 1058.5,864.5C 1058.96,863.702 1059.62,863.369 1060.5,863.5C 1075.16,861.168 1089.83,858.835 1104.5,856.5 Z"/></g>
<g><path style="opacity:1" fill="#6487df" d="M 1098.5,912.5 C 1098.1,921.925 1096.93,931.258 1095,940.5C 1090.55,931.929 1086.38,923.262 1082.5,914.5C 1087.73,913.79 1093.07,913.123 1098.5,912.5 Z"/></g>
<g><path style="opacity:0.991" fill="#6089e6" d="M 1128.5,952.5 C 1128.33,953.492 1128.66,954.158 1129.5,954.5C 1142.52,1015.91 1158.35,1076.58 1177,1136.5C 1195.12,1176.44 1218.95,1212.44 1248.5,1244.5C 1246.91,1247.27 1245.08,1249.93 1243,1252.5C 1231.96,1263.87 1221.3,1275.53 1211,1287.5C 1209.87,1289.14 1208.37,1290.14 1206.5,1290.5C 1142.06,1241.56 1093.89,1179.89 1062,1105.5C 1056.12,1091.74 1050.28,1078.08 1044.5,1064.5C 1041.23,1052.18 1037.06,1040.18 1032,1028.5C 1028.79,1038.25 1027.79,1048.25 1029,1058.5C 1031.16,1074.83 1035.33,1090.49 1041.5,1105.5C 1042.04,1161.05 1045.88,1216.38 1053,1271.5C 1055.75,1293.19 1058.59,1314.85 1061.5,1336.5C 1041.4,1339.62 1021.06,1341.96 1000.5,1343.5C 958.657,1232.27 940.657,1117.27 946.5,998.5C 947.869,988.266 948.536,977.932 948.5,967.5C 950.41,968.094 952.41,968.427 954.5,968.5C 1012.49,962.865 1070.49,957.531 1128.5,952.5 Z"/></g>
<g><path style="opacity:1" fill="#435f9f" d="M 1044.5,1064.5 C 1043.21,1078.14 1042.21,1091.81 1041.5,1105.5C 1035.33,1090.49 1031.16,1074.83 1029,1058.5C 1027.79,1048.25 1028.79,1038.25 1032,1028.5C 1037.06,1040.18 1041.23,1052.18 1044.5,1064.5 Z"/></g>
<g><path style="opacity:0.968" fill="#263238" d="M 1259.5,1268.5 C 1257.63,1268.86 1256.13,1269.86 1255,1271.5C 1248.6,1279.06 1242.43,1286.73 1236.5,1294.5C 1232.02,1299.43 1227.52,1304.43 1223,1309.5C 1216.16,1305.42 1209.5,1301.08 1203,1296.5C 1202.33,1295.83 1202.33,1295.17 1203,1294.5C 1204.38,1293.29 1205.54,1291.96 1206.5,1290.5C 1208.37,1290.14 1209.87,1289.14 1211,1287.5C 1221.3,1275.53 1231.96,1263.87 1243,1252.5C 1245.08,1249.93 1246.91,1247.27 1248.5,1244.5C 1249.96,1243.54 1251.29,1242.38 1252.5,1241C 1253.17,1240.33 1253.83,1240.33 1254.5,1241C 1259,1245.5 1263.5,1250 1268,1254.5C 1268.67,1255.5 1268.67,1256.5 1268,1257.5C 1264.93,1261.06 1262.09,1264.73 1259.5,1268.5 Z"/></g>
<g><path style="opacity:0.966" fill="#ca6e61" d="M 1259.5,1268.5 C 1262.03,1270.61 1264.36,1272.94 1266.5,1275.5C 1257.8,1283.2 1249.8,1291.53 1242.5,1300.5C 1240.17,1298.83 1238.17,1296.83 1236.5,1294.5C 1242.43,1286.73 1248.6,1279.06 1255,1271.5C 1256.13,1269.86 1257.63,1268.86 1259.5,1268.5 Z"/></g>
<g><path style="opacity:0.971" fill="#fc897a" d="M 1266.5,1275.5 C 1268.88,1277.88 1271.55,1279.88 1274.5,1281.5C 1267.6,1291.07 1259.6,1299.74 1250.5,1307.5C 1247.81,1305.14 1245.14,1302.8 1242.5,1300.5C 1249.8,1291.53 1257.8,1283.2 1266.5,1275.5 Z"/></g>
<g><path style="opacity:0.968" fill="#263238" d="M 1246.5,1322.5 C 1247.49,1320.67 1247.49,1319 1246.5,1317.5C 1246.5,1317.17 1246.5,1316.83 1246.5,1316.5C 1247.4,1315.79 1247.74,1314.79 1247.5,1313.5C 1247.5,1313.17 1247.5,1312.83 1247.5,1312.5C 1248.11,1311.61 1248.44,1310.61 1248.5,1309.5C 1249.5,1309.17 1250.17,1308.5 1250.5,1307.5C 1259.6,1299.74 1267.6,1291.07 1274.5,1281.5C 1276.4,1280.49 1278.4,1280.32 1280.5,1281C 1289.66,1286.08 1298.66,1291.41 1307.5,1297C 1308.6,1299.4 1308.77,1301.9 1308,1304.5C 1288.07,1323.43 1269.24,1343.26 1251.5,1364C 1246.49,1367.54 1241.16,1368.2 1235.5,1366C 1233.88,1364.88 1232.88,1363.38 1232.5,1361.5C 1236.59,1353.66 1240.42,1345.66 1244,1337.5C 1245.42,1332.59 1246.25,1327.59 1246.5,1322.5 Z"/></g>
<g><path style="opacity:0.979" fill="#6189e5" d="M 450.5,1282.5 C 472.299,1286.28 494.299,1289.62 516.5,1292.5C 518.288,1292.21 519.955,1292.55 521.5,1293.5C 519.167,1301.5 516.833,1309.5 514.5,1317.5C 514,1317.83 513.5,1318.17 513,1318.5C 508.224,1317.41 503.391,1316.75 498.5,1316.5C 486.036,1314.05 473.369,1312.05 460.5,1310.5C 454.842,1310.19 449.342,1309.19 444,1307.5C 442.836,1298.86 442.003,1290.19 441.5,1281.5C 444.482,1281.96 447.482,1282.3 450.5,1282.5 Z"/></g>
<g><path style="opacity:0.978" fill="#6189e6" d="M 717.5,1301.5 C 737.502,1302.29 757.668,1302.96 778,1303.5C 781.352,1303.5 784.518,1303.16 787.5,1302.5C 789.5,1302.5 791.5,1302.5 793.5,1302.5C 793.5,1310.83 793.5,1319.17 793.5,1327.5C 787.5,1327.5 781.5,1327.5 775.5,1327.5C 762.833,1327.5 750.167,1327.5 737.5,1327.5C 729.248,1327.82 721.081,1327.48 713,1326.5C 709.963,1318.26 706.796,1310.1 703.5,1302C 708.155,1301.5 712.821,1301.33 717.5,1301.5 Z"/></g>
<g><path style="opacity:0.7" fill="#5f88e3" d="M 1248.5,1309.5 C 1248.44,1310.61 1248.11,1311.61 1247.5,1312.5C 1244.98,1311.2 1242.31,1310.2 1239.5,1309.5C 1238,1310.08 1236.67,1310.92 1235.5,1312C 1239.36,1313.35 1243.36,1313.85 1247.5,1313.5C 1247.74,1314.79 1247.4,1315.79 1246.5,1316.5C 1245.83,1316.5 1245.5,1316.83 1245.5,1317.5C 1245.83,1317.5 1246.17,1317.5 1246.5,1317.5C 1247.49,1319 1247.49,1320.67 1246.5,1322.5C 1243.45,1326.52 1239.45,1328.02 1234.5,1327C 1233.42,1325.27 1233.26,1323.44 1234,1321.5C 1235.87,1319.29 1238.04,1317.46 1240.5,1316C 1238.44,1315.69 1236.44,1315.19 1234.5,1314.5C 1232.82,1309.65 1234.66,1306.98 1240,1306.5C 1243,1307.12 1245.84,1308.12 1248.5,1309.5 Z M 1245.5,1317.5 C 1243.88,1321.12 1241.21,1323.79 1237.5,1325.5C 1236.42,1324.64 1236.25,1323.64 1237,1322.5C 1239.48,1320.18 1242.31,1318.51 1245.5,1317.5 Z"/></g>
<g><path style="opacity:0.985" fill="#cb9c98" d="M 460.5,1310.5 C 473.369,1312.05 486.036,1314.05 498.5,1316.5C 498.5,1318.5 498.5,1320.5 498.5,1322.5C 485.751,1321.39 473.084,1319.73 460.5,1317.5C 460.5,1315.17 460.5,1312.83 460.5,1310.5 Z"/></g>
<g><path style="opacity:0.979" fill="#fdc1bb" d="M 460.5,1317.5 C 473.084,1319.73 485.751,1321.39 498.5,1322.5C 496.5,1334.83 494.5,1347.17 492.5,1359.5C 492.083,1360.12 491.416,1360.46 490.5,1360.5C 478.318,1358.76 466.318,1356.76 454.5,1354.5C 456.328,1342.02 458.328,1329.69 460.5,1317.5 Z"/></g>
<g><path style="opacity:0.984" fill="#cd9d98" d="M 737.5,1327.5 C 750.167,1327.5 762.833,1327.5 775.5,1327.5C 775.298,1329.95 775.631,1332.28 776.5,1334.5C 763.833,1334.5 751.167,1334.5 738.5,1334.5C 738.007,1332.19 737.674,1329.86 737.5,1327.5 Z"/></g>
<g><path style="opacity:0.978" fill="#fcc1bb" d="M 738.5,1334.5 C 751.167,1334.5 763.833,1334.5 776.5,1334.5C 777.5,1346.5 778.5,1358.5 779.5,1370.5C 767.167,1371.83 754.833,1371.83 742.5,1370.5C 740.806,1358.59 739.472,1346.59 738.5,1334.5 Z"/></g>
<g><path style="opacity:0.975" fill="#263239" d="M 1061.5,1336.5 C 1064.71,1336.01 1067.54,1336.68 1070,1338.5C 1070.21,1344.88 1070.71,1351.22 1071.5,1357.5C 1066.28,1359.06 1060.94,1360.06 1055.5,1360.5C 1043.9,1361.25 1032.57,1362.92 1021.5,1365.5C 1015.32,1366.36 1009.15,1367.36 1003,1368.5C 1002.5,1368.17 1002,1367.83 1001.5,1367.5C 999.085,1360 996.752,1352.5 994.5,1345C 996.436,1344.19 998.436,1343.69 1000.5,1343.5C 1021.06,1341.96 1041.4,1339.62 1061.5,1336.5 Z"/></g>
<g><path style="opacity:0.736" fill="#5e86df" d="M 449.5,1354.5 C 449.5,1356.17 449.5,1357.83 449.5,1359.5C 444.5,1359.5 439.5,1359.5 434.5,1359.5C 431.755,1358.83 429.255,1357.5 427,1355.5C 426.333,1353.5 426.333,1351.5 427,1349.5C 429.953,1348.25 432.953,1348.25 436,1349.5C 436.5,1349.17 437,1348.83 437.5,1348.5C 435.532,1344.63 436.532,1341.96 440.5,1340.5C 443.188,1341 445.355,1342.34 447,1344.5C 448.15,1347.77 448.984,1351.1 449.5,1354.5 Z M 439.5,1343.5 C 444.203,1345.56 446.37,1349.23 446,1354.5C 442.28,1351.72 440.113,1348.06 439.5,1343.5 Z M 429.5,1350.5 C 433.867,1351.52 437.867,1353.35 441.5,1356C 436.322,1357.27 431.989,1355.94 428.5,1352C 429.056,1351.62 429.389,1351.12 429.5,1350.5 Z"/></g>
<g><path style="opacity:0.989" fill="#263238" d="M 449.5,1354.5 C 451.167,1354.5 452.833,1354.5 454.5,1354.5C 466.318,1356.76 478.318,1358.76 490.5,1360.5C 491.416,1360.46 492.083,1360.12 492.5,1359.5C 493.458,1359.95 494.292,1360.62 495,1361.5C 495.567,1366.83 496.067,1372.17 496.5,1377.5C 496.062,1377.43 495.728,1377.6 495.5,1378C 496.661,1384.76 497.161,1391.59 497,1398.5C 496.266,1400.74 494.766,1402.07 492.5,1402.5C 469.185,1398.56 445.852,1394.73 422.5,1391C 407.625,1388.25 392.958,1384.75 378.5,1380.5C 372.854,1376.51 371.188,1371.18 373.5,1364.5C 384.686,1363.2 395.852,1363.2 407,1364.5C 416.348,1363.8 425.515,1362.13 434.5,1359.5C 439.5,1359.5 444.5,1359.5 449.5,1359.5C 449.5,1357.83 449.5,1356.17 449.5,1354.5 Z"/></g>
<g><path style="opacity:0.762" fill="#6389e2" d="M 738.5,1370.5 C 738.5,1372.5 738.5,1374.5 738.5,1376.5C 734.846,1376.94 731.179,1377.28 727.5,1377.5C 723.454,1377.5 720.454,1375.84 718.5,1372.5C 718.297,1370.61 718.963,1369.11 720.5,1368C 722.995,1367.84 725.328,1367.68 727.5,1367.5C 726.607,1364.92 726.274,1362.25 726.5,1359.5C 728.857,1359.34 731.19,1359.5 733.5,1360C 736.117,1363.07 737.783,1366.57 738.5,1370.5 Z M 729.5,1361.5 C 733.162,1363.82 734.996,1367.16 735,1371.5C 731.83,1368.82 729.997,1365.49 729.5,1361.5 Z M 730.5,1373.5 C 727.833,1373.5 725.167,1373.5 722.5,1373.5C 720.863,1371.88 721.197,1370.88 723.5,1370.5C 726.176,1370.94 728.509,1371.94 730.5,1373.5 Z"/></g>
<g><path style="opacity:0.982" fill="#c86e61" d="M 1055.5,1360.5 C 1055.83,1363.83 1056.17,1367.17 1056.5,1370.5C 1045.27,1372.1 1033.93,1373.1 1022.5,1373.5C 1021.53,1371.05 1021.19,1368.39 1021.5,1365.5C 1032.57,1362.92 1043.9,1361.25 1055.5,1360.5 Z"/></g>
<g><path style="opacity:0.998" fill="#263238" d="M 738.5,1370.5 C 739.833,1370.5 741.167,1370.5 742.5,1370.5C 754.833,1371.83 767.167,1371.83 779.5,1370.5C 782.187,1370.34 784.854,1370.5 787.5,1371C 788.252,1371.67 788.586,1372.5 788.5,1373.5C 790.511,1384.72 792.844,1395.89 795.5,1407C 795.357,1409.15 794.357,1410.82 792.5,1412C 761.005,1411.17 729.505,1411.34 698,1412.5C 691.423,1412.61 684.923,1412.11 678.5,1411C 672.579,1407.35 671.245,1402.52 674.5,1396.5C 686,1393.96 697.334,1390.79 708.5,1387C 715.279,1384.48 721.613,1381.31 727.5,1377.5C 731.179,1377.28 734.846,1376.94 738.5,1376.5C 738.5,1374.5 738.5,1372.5 738.5,1370.5 Z"/></g>
<g><path style="opacity:0.998" fill="#fa897a" d="M 1056.5,1370.5 C 1056.43,1371.96 1056.77,1373.29 1057.5,1374.5C 1056.74,1376.98 1056.74,1379.65 1057.5,1382.5C 1046.49,1383.44 1035.49,1384.44 1024.5,1385.5C 1024.57,1381.58 1023.9,1377.91 1022.5,1374.5C 1022.5,1374.17 1022.5,1373.83 1022.5,1373.5C 1033.93,1373.1 1045.27,1372.1 1056.5,1370.5 Z"/></g>
<g><path style="opacity:1" fill="#eaeaea" d="M 718.5,1372.5 C 720.454,1375.84 723.454,1377.5 727.5,1377.5C 721.613,1381.31 715.279,1384.48 708.5,1387C 697.334,1390.79 686,1393.96 674.5,1396.5C 671.245,1402.52 672.579,1407.35 678.5,1411C 684.923,1412.11 691.423,1412.61 698,1412.5C 729.505,1411.34 761.005,1411.17 792.5,1412C 794.357,1410.82 795.357,1409.15 795.5,1407C 792.844,1395.89 790.511,1384.72 788.5,1373.5C 865.52,1373.24 942.52,1373.9 1019.5,1375.5C 1020.73,1375.48 1021.73,1375.15 1022.5,1374.5C 1023.9,1377.91 1024.57,1381.58 1024.5,1385.5C 1022.83,1385.5 1021.17,1385.5 1019.5,1385.5C 1018.49,1378.97 1014.82,1376.14 1008.5,1377C 1007.45,1378.39 1007.28,1379.89 1008,1381.5C 1009.02,1382.35 1009.86,1383.35 1010.5,1384.5C 1007.22,1385.32 1003.88,1385.82 1000.5,1386C 998.86,1388.78 999.527,1390.78 1002.5,1392C 1005.82,1392.5 1009.15,1392.67 1012.5,1392.5C 1006.96,1400.46 999.622,1406.29 990.5,1410C 985.568,1411.27 980.735,1412.77 976,1414.5C 974.972,1423.65 979.139,1428.31 988.5,1428.5C 999.629,1427.47 1010.63,1425.63 1021.5,1423C 1036.47,1421.56 1051.47,1420.56 1066.5,1420C 1071.45,1419.73 1073.28,1417.23 1072,1412.5C 1068.8,1403.23 1065.8,1393.9 1063,1384.5C 1061.6,1382.81 1059.77,1382.14 1057.5,1382.5C 1056.74,1379.65 1056.74,1376.98 1057.5,1374.5C 1145.02,1377.23 1232.68,1380.4 1320.5,1384C 1398.73,1387.06 1476.73,1393.06 1554.5,1402C 1569.64,1403.91 1584.64,1406.58 1599.5,1410C 1605.92,1411.36 1611.92,1413.69 1617.5,1417C 1620.31,1420.29 1619.98,1423.29 1616.5,1426C 1610.16,1429.25 1603.5,1431.58 1596.5,1433C 1558.81,1440.26 1520.81,1445.26 1482.5,1448C 1388.96,1455.36 1295.29,1460.36 1201.5,1463C 941.5,1470.33 681.5,1470.33 421.5,1463C 316.978,1460.21 212.645,1454.21 108.5,1445C 77.0914,1442.42 46.0914,1437.42 15.5,1430C 11.1308,1428.73 7.29745,1426.57 4,1423.5C 2.83452,1419.32 4.33452,1416.48 8.5,1415C 19.4902,1410.75 30.8236,1407.75 42.5,1406C 88.9375,1398.9 135.604,1393.9 182.5,1391C 247.794,1386.57 313.127,1383.07 378.5,1380.5C 392.958,1384.75 407.625,1388.25 422.5,1391C 445.852,1394.73 469.185,1398.56 492.5,1402.5C 494.766,1402.07 496.266,1400.74 497,1398.5C 497.161,1391.59 496.661,1384.76 495.5,1378C 495.728,1377.6 496.062,1377.43 496.5,1377.5C 570.657,1375.82 644.657,1374.15 718.5,1372.5 Z"/></g>
<g><path style="opacity:0.646" fill="#f0f1f4" d="M 722.5,1373.5 C 725.167,1373.5 727.833,1373.5 730.5,1373.5C 732.379,1373.39 732.712,1373.89 731.5,1375C 728.137,1375.93 725.137,1375.43 722.5,1373.5 Z"/></g>
<g><path style="opacity:1" fill="#e8ebf3" d="M 1018.5,1386.5 C 1017.83,1386.83 1017.17,1387.17 1016.5,1387.5C 1015.02,1385.5 1013.19,1383.83 1011,1382.5C 1009.99,1380.98 1009.49,1379.31 1009.5,1377.5C 1014.11,1378.78 1017.11,1381.78 1018.5,1386.5 Z"/></g>
<g><path style="opacity:1" fill="#7a9ae7" d="M 1019.5,1385.5 C 1019.5,1386.17 1019.17,1386.5 1018.5,1386.5C 1017.11,1381.78 1014.11,1378.78 1009.5,1377.5C 1009.49,1379.31 1009.99,1380.98 1011,1382.5C 1013.19,1383.83 1015.02,1385.5 1016.5,1387.5C 1016.5,1388.17 1016.17,1388.5 1015.5,1388.5C 1011.21,1387.41 1006.87,1386.91 1002.5,1387C 1001.17,1388 1001.17,1389 1002.5,1390C 1006.15,1390.5 1009.82,1390.67 1013.5,1390.5C 1013.17,1391.17 1012.83,1391.83 1012.5,1392.5C 1009.15,1392.67 1005.82,1392.5 1002.5,1392C 999.527,1390.78 998.86,1388.78 1000.5,1386C 1003.88,1385.82 1007.22,1385.32 1010.5,1384.5C 1009.86,1383.35 1009.02,1382.35 1008,1381.5C 1007.28,1379.89 1007.45,1378.39 1008.5,1377C 1014.82,1376.14 1018.49,1378.97 1019.5,1385.5 Z"/></g>
<g><path style="opacity:1" fill="#273339" d="M 1057.5,1382.5 C 1059.77,1382.14 1061.6,1382.81 1063,1384.5C 1065.8,1393.9 1068.8,1403.23 1072,1412.5C 1073.28,1417.23 1071.45,1419.73 1066.5,1420C 1051.47,1420.56 1036.47,1421.56 1021.5,1423C 1010.63,1425.63 999.629,1427.47 988.5,1428.5C 979.139,1428.31 974.972,1423.65 976,1414.5C 980.735,1412.77 985.568,1411.27 990.5,1410C 999.622,1406.29 1006.96,1400.46 1012.5,1392.5C 1012.83,1391.83 1013.17,1391.17 1013.5,1390.5C 1014.5,1390.17 1015.17,1389.5 1015.5,1388.5C 1016.17,1388.5 1016.5,1388.17 1016.5,1387.5C 1017.17,1387.17 1017.83,1386.83 1018.5,1386.5C 1019.17,1386.5 1019.5,1386.17 1019.5,1385.5C 1021.17,1385.5 1022.83,1385.5 1024.5,1385.5C 1035.49,1384.44 1046.49,1383.44 1057.5,1382.5 Z"/></g>
<g><path style="opacity:1" fill="#edeef2" d="M 1015.5,1388.5 C 1015.17,1389.5 1014.5,1390.17 1013.5,1390.5C 1009.82,1390.67 1006.15,1390.5 1002.5,1390C 1001.17,1389 1001.17,1388 1002.5,1387C 1006.87,1386.91 1011.21,1387.41 1015.5,1388.5 Z"/></g>
</svg>
